<svg width="56" height="56" viewBox="0 0 56 56" fill="none" xmlns="http://www.w3.org/2000/svg">
<g clip-path="url(#clip0_49_250)">
<path d="M41.971 27.098C43.522 27.466 45.217 27.458 47.025 26.695C50.133 25.384 52.343 22.403 52.412 19.03C52.49 15.252 50.093 12.03 46.735 10.852C46.499 7.42201 43.649 4.71201 40.16 4.71201C40.15 4.71201 40.14 4.71301 40.13 4.71301C40.192 4.19401 40.157 3.64501 39.989 3.07201C39.517 1.46201 38.102 0.227008 36.436 0.0290084C35.07 -0.132992 33.816 0.356008 32.937 1.22501C32.103 0.472008 31.007 8.41403e-06 29.792 8.41403e-06C27.189 8.41403e-06 25.079 2.11001 25.079 4.71301C25.079 4.72101 25.081 4.72901 25.081 4.73701C21.917 4.97701 19.423 7.61501 19.423 10.84C19.423 11.333 19.487 11.81 19.597 12.269C15.831 12.426 12.824 15.519 12.824 19.323C12.824 20.612 13.174 21.816 13.777 22.857C12.62 23.808 11.882 25.25 11.882 26.864C11.882 29.121 13.327 31.036 15.341 31.748C15.081 40.965 18.37 46.403 24.733 53.728C24.847 53.859 24.962 53.991 25.078 54.122C25.103 54.15 25.128 54.178 25.153 54.206C27.799 57.175 33.767 54.901 32.483 51.137C25.628 31.027 46.758 33.934 46.758 33.934C46.758 33.934 47.362 27.851 41.911 27.566C41.918 27.414 41.925 27.261 41.932 27.109C41.946 27.106 41.957 27.101 41.971 27.098Z" fill="#88C057"/>
<path d="M25.154 54.206C25.129 54.178 25.104 54.15 25.079 54.122C24.963 53.991 24.848 53.86 24.734 53.728C18.37 46.403 15.081 40.965 15.342 31.748C13.328 31.036 11.883 29.121 11.883 26.864C11.883 25.249 12.621 23.808 13.778 22.857C13.176 21.816 12.825 20.612 12.825 19.323C12.825 15.519 15.832 12.425 19.598 12.269C19.488 11.81 19.424 11.333 19.424 10.84C19.424 8.27801 21 6.09201 23.233 5.17801C23.085 4.69301 22.897 4.20401 22.65 3.71501C21.418 1.27401 19.25 -0.258992 17.271 0.0630082C15.64 0.328008 14.499 1.65901 14.008 3.44901C12.64 2.52801 11.122 2.17001 9.751 2.65301C6.812 3.68801 5.885 7.91401 7.568 11.828C7.573 11.84 7.58 11.85 7.585 11.862C4.399 13.384 3.552 17.909 5.572 21.991C5.867 22.586 6.21 23.133 6.584 23.638C3.065 25.093 2.136 29.511 4.352 33.372C5.06 34.606 6.006 35.622 7.058 36.389C6.56 37.58 6.668 39.045 7.46 40.397C8.523 42.213 10.518 43.291 12.386 43.278C15.669 49.725 19.697 52.226 25.796 54.814C25.86 54.841 25.924 54.868 25.988 54.894C25.688 54.704 25.403 54.486 25.154 54.206Z" fill="#659C35"/>
<path d="M27.545 24.419C27.603 24.291 27.63 24.157 27.632 24.025C28.349 22.221 29.212 20.707 30.11 19.444C34.594 18.512 37.977 19.913 38.052 19.945C38.183 20.003 38.319 20.029 38.451 20.029C38.836 20.029 39.203 19.805 39.368 19.431C39.59 18.925 39.359 18.335 38.854 18.113C38.715 18.053 35.956 16.875 31.989 17.164C33.927 15.143 35.628 14.226 35.882 14.098C37.335 13.402 39.458 14.302 40.155 14.708C40.314 14.802 40.488 14.846 40.661 14.846C41.003 14.846 41.337 14.67 41.523 14.354C41.803 13.878 41.646 13.266 41.169 12.985C41.055 12.917 38.807 11.618 36.504 11.879C36.701 11.068 37.138 10.33 37.361 10.034C37.696 9.596 37.612 8.969 37.173 8.634C36.736 8.299 36.107 8.381 35.772 8.821C35.709 8.902 34.397 10.642 34.4 12.645C32.945 13.536 29.186 16.237 26.556 21.665C26.414 21.957 26.277 22.271 26.141 22.586C23.413 20.721 23.862 17.403 23.887 17.242C23.972 16.698 23.601 16.187 23.056 16.1C22.512 16.013 21.998 16.385 21.911 16.93C21.621 18.745 22.037 22.485 25.406 24.494C24.662 26.682 24.098 29.294 23.924 32.377C23.904 32.474 23.9 32.568 23.908 32.664C23.804 34.825 23.904 37.222 24.252 39.847C22.984 39.149 22.404 38.128 22.367 38.059C22.106 37.574 21.504 37.389 21.018 37.645C20.53 37.902 20.341 38.507 20.599 38.996C20.652 39.097 21.849 41.31 24.616 42.165C25.337 46.121 26.622 50.563 28.7 55.548C29.385 55.503 30.052 55.322 30.642 55.028C30.639 55.02 30.64 55.011 30.637 55.002C28.456 49.813 27.14 45.242 26.44 41.203C26.436 41.179 26.434 41.156 26.429 41.133C25.909 38.103 25.74 35.38 25.838 32.941C27.238 30.554 31.353 30.458 31.395 30.457C31.947 30.448 32.388 29.995 32.38 29.443C32.372 28.895 31.927 28.457 31.381 28.457C31.377 28.457 31.373 28.457 31.369 28.457C31.206 28.459 28.355 28.521 26.093 29.939C26.369 27.959 26.828 26.205 27.397 24.647C27.456 24.578 27.507 24.503 27.545 24.419Z" fill="#659C35"/>
</g>
<defs>
<clipPath id="clip0_49_250">
<rect width="55.569" height="55.569" fill="white"/>
</clipPath>
</defs>
</svg>
