<svg width="57" height="57" viewBox="0 0 57 57" fill="none" xmlns="http://www.w3.org/2000/svg">
<path d="M26 57L12 51V18L26 23V57Z" fill="#C6C6C6"/>
<path d="M45 52L26 57V23L45 18V52Z" fill="#E6E6E6"/>
<path d="M38 4L19 8V4L38 0V4Z" fill="#E2E2E2"/>
<path d="M26 23L12 18L19 8L26 23Z" fill="#D1D1D1"/>
<path d="M45 18L26 23L19 8L38 4L45 18Z" fill="#EAEAEA"/>
<path d="M45 37L26 52V37L45 21V37Z" fill="#3DABEF"/>
<path d="M12 46L26 52V37L12 31V46Z" fill="#2B9DD6"/>
<path d="M34.2151 16.875C31.9981 17.455 31.2591 15.452 30.9101 14.122C30.5621 12.792 30.2261 10.683 32.4431 10.103C34.6601 9.52298 35.3991 11.526 35.7471 12.856C36.0951 14.186 36.4321 16.295 34.2151 16.875Z" fill="white"/>
<path d="M34 4.84202L36 4.42102V0.421021L34 0.842021V4.84202Z" fill="#EDEDED"/>
<path d="M30 5.684L32 5.263V1.263L30 1.684V5.684Z" fill="#EDEDED"/>
<path d="M26 6.52598L28 6.10498V2.10498L26 2.52598V6.52598Z" fill="#EDEDED"/>
<path d="M22 7.36802L24 6.94702V2.94702L22 3.36802V7.36802Z" fill="#EDEDED"/>
</svg>
