<svg width="58" height="58" viewBox="0 0 58 58" fill="none" xmlns="http://www.w3.org/2000/svg">
<path d="M42.766 48.504C44.628 48.771 46.635 48.649 48.673 48.053C53.255 46.712 56.66 43.086 57.259 39.118C57.578 37.005 57.139 35.049 56.154 33.401C55.449 32.221 55.484 30.757 56.29 29.602C57.376 28.044 58 26.214 58 24.247C58 19.957 54.994 16.071 50.577 14.254C48.505 13.402 46.904 11.75 46.288 9.79502C44.988 5.67202 42.043 3.74802 37.821 3.13102C34.016 2.57502 30.57 3.83102 28.754 6.20102C27.689 7.59102 25.444 8.18002 23.144 7.61902C21.78 7.28602 20.323 7.09602 18.8 7.08302C12.405 7.02802 6.949 10.333 6.037 15.092C5.725 16.72 5.947 18.317 6.597 19.8C7.703 22.326 6.689 25.024 4.09 26.922C1.57 28.763 0 31.265 0 34.013C0 37.298 5.326 39.919 9.847 41.483C13.273 42.669 15.358 44.982 15.84 47.663C15.846 47.699 15.853 47.734 15.86 47.77C16.726 52.222 21.623 55.201 27.389 54.989C31.997 54.82 36.007 52.832 38.443 50.127C39.508 48.945 41.23 48.284 42.766 48.504Z" fill="#FAF5E5"/>
<path d="M36.5 42C43.4036 42 49 36.4036 49 29.5C49 22.5964 43.4036 17 36.5 17C29.5964 17 24 22.5964 24 29.5C24 36.4036 29.5964 42 36.5 42Z" fill="#F8B600"/>
<path d="M34 22.374C33.572 22.374 33.1769 22.098 33.0439 21.668C32.8819 21.141 33.178 20.581 33.706 20.418C34.607 20.141 35.548 20 36.5 20C37.053 20 37.5 20.447 37.5 21C37.5 21.553 37.053 22 36.5 22C35.747 22 35.0049 22.111 34.2939 22.33C34.1959 22.36 34.097 22.374 34 22.374Z" fill="#F4C45B"/>
<path d="M28 30.5001C27.447 30.5001 27 30.0531 27 29.5001C27 26.6931 28.231 24.0461 30.379 22.2351C30.802 21.8791 31.432 21.9341 31.788 22.3551C32.143 22.7771 32.09 23.4081 31.668 23.7641C29.973 25.1941 29 27.2841 29 29.5001C29 30.0531 28.553 30.5001 28 30.5001Z" fill="#F4C45B"/>
<path d="M9.99897 17C9.81097 17 9.62197 16.947 9.45297 16.837C8.99097 16.535 8.85997 15.916 9.16297 15.453C10.442 13.493 12.161 12.024 14.27 11.085C14.776 10.862 15.366 11.088 15.59 11.593C15.814 12.097 15.587 12.689 15.082 12.913C13.33 13.692 11.901 14.915 10.836 16.547C10.646 16.841 10.325 17 9.99897 17Z" fill="white"/>
<path d="M21.0011 12C20.9551 12 20.9091 11.997 20.8621 11.99C20.8411 11.988 19.9401 11.871 18.651 11.995C18.094 12.047 17.6121 11.646 17.5591 11.097C17.5051 10.547 17.9081 10.058 18.4571 10.005C20.0081 9.855 21.0931 10.004 21.1391 10.01C21.6861 10.087 22.0671 10.593 21.9901 11.14C21.9201 11.64 21.4911 12 21.0011 12Z" fill="white"/>
<path d="M24.239 50.966C21.144 50.966 18.439 48.748 17.905 45.654C17.811 45.11 18.176 44.592 18.72 44.499C19.263 44.404 19.782 44.77 19.875 45.314C20.271 47.605 22.396 49.194 24.726 48.939L24.875 48.922C25.429 48.853 25.923 49.242 25.991 49.79C26.059 50.338 25.671 50.838 25.123 50.906L24.96 50.925C24.719 50.953 24.478 50.966 24.239 50.966Z" fill="white"/>
<path d="M17.96 44.0001C17.623 44.0001 17.295 43.8301 17.106 43.5221C16.384 42.3431 15.487 41.7731 15.478 41.7671C15.006 41.4791 14.858 40.8641 15.147 40.3931C15.435 39.9211 16.052 39.7711 16.521 40.0621C16.575 40.0941 17.83 40.8741 18.811 42.4771C19.1 42.9491 18.952 43.5641 18.481 43.8521C18.318 43.9521 18.138 44.0001 17.96 44.0001Z" fill="white"/>
<path d="M43.2218 38.1249C46.6598 35.8148 48.3232 32.2699 46.9372 30.2071C45.5511 28.1444 41.6405 28.3448 38.2025 30.6549C34.7646 32.965 33.1011 36.5099 34.4872 38.5726C35.8732 40.6354 39.7839 40.435 43.2218 38.1249Z" fill="#F79B21"/>
</svg>
