<svg width="50" height="50" viewBox="0 0 50 50" fill="none" xmlns="http://www.w3.org/2000/svg">
<g clip-path="url(#clip0_49_270)">
<path d="M0.953043 38.891C0.953043 38.891 4.13704 45.812 12.358 48.531C14.185 49.135 16.109 49.282 18.025 49.453C25.891 50.156 44.739 48.482 49.091 30.477C50.458 24.821 49.851 18.865 47.662 13.474C44.51 5.71102 37.447 -4.23298 22.831 2.42702C14.503 6.22202 15.135 12.706 16.918 17.214C19.075 22.67 14.675 28.295 8.85804 27.53C1.66904 26.584 -1.82496 30.904 0.953043 38.891Z" fill="#994530"/>
<path d="M4.69015 37.18C5.09215 37.965 7.74815 42.732 13.8012 44.734C15.1362 45.175 16.6642 45.311 18.2832 45.454L18.5652 45.479C19.3832 45.552 20.2632 45.589 21.1822 45.589C39.3622 45.589 44.0362 34.371 45.2022 29.548C46.3362 24.855 45.9081 19.845 43.9672 15.06C41.0492 7.874 36.8562 4.229 31.5062 4.229C29.2962 4.229 26.8232 4.844 24.1572 6.059C21.1652 7.423 17.4812 9.98 20.0272 16.419C21.3112 19.669 20.9392 23.165 19.0042 26.01C16.8342 29.201 13.0022 30.911 9.10915 30.4C8.61615 30.335 8.14315 30.301 7.70515 30.301C6.62815 30.301 5.20315 30.499 4.53215 31.444C3.76515 32.524 3.82315 34.609 4.69015 37.18Z" fill="#D75A4A"/>
<path d="M21.1841 46.589C20.2361 46.589 19.3261 46.551 18.4781 46.475L18.1951 46.45C16.5211 46.303 14.9381 46.163 13.4891 45.683C7.1131 43.575 4.3011 38.61 3.8011 37.636L3.7431 37.499C2.7591 34.582 2.7501 32.226 3.7171 30.864C4.6291 29.579 6.6071 29.057 9.2411 29.408C12.7781 29.874 16.2001 28.354 18.1771 25.447C19.9231 22.882 20.2591 19.724 19.0981 16.786C15.9091 8.72099 21.8051 6.03199 23.7431 5.14799C33.4231 0.740986 40.5531 3.99299 44.8951 14.683C46.9161 19.664 47.3591 24.885 46.1751 29.782C44.9531 34.836 40.0731 46.589 21.1841 46.589ZM5.6131 36.787C6.0141 37.545 8.5491 41.942 14.1161 43.784C15.3451 44.19 16.8151 44.32 18.3721 44.457L18.6561 44.482C19.4441 44.552 20.2951 44.588 21.1831 44.588C38.6521 44.588 43.1211 33.905 44.2311 29.312C45.3151 24.825 44.9031 20.026 43.0411 15.435C40.2901 8.66299 36.4091 5.22899 31.5061 5.22899C29.4391 5.22899 27.1061 5.81399 24.5721 6.96899C21.5521 8.34499 18.7621 10.501 20.9571 16.052C22.3651 19.615 21.9551 23.45 19.8311 26.573C17.4271 30.107 13.2681 31.959 8.9791 31.391C7.1861 31.155 5.7821 31.41 5.3471 32.023C4.9121 32.636 4.7561 34.207 5.6131 36.787Z" fill="#C64940"/>
<path d="M32.4551 16.7791C34.6642 16.7791 36.4551 14.9882 36.4551 12.7791C36.4551 10.5699 34.6642 8.77905 32.4551 8.77905C30.2459 8.77905 28.4551 10.5699 28.4551 12.7791C28.4551 14.9882 30.2459 16.7791 32.4551 16.7791Z" fill="#E6E6E6"/>
<path d="M32.4551 17.779C29.6981 17.779 27.4551 15.536 27.4551 12.779C27.4551 10.022 29.6981 7.77899 32.4551 7.77899C35.2121 7.77899 37.4551 10.022 37.4551 12.779C37.4551 15.536 35.2121 17.779 32.4551 17.779ZM32.4551 9.77899C30.8011 9.77899 29.4551 11.125 29.4551 12.779C29.4551 14.433 30.8011 15.779 32.4551 15.779C34.1091 15.779 35.4551 14.433 35.4551 12.779C35.4551 11.125 34.1091 9.77899 32.4551 9.77899Z" fill="#7A3726"/>
<path d="M25.6171 45.684L23.6761 45.205C24.1111 43.444 22.6131 41.989 20.2301 40.346C17.3551 38.362 15.4131 35.229 14.9031 31.751C14.7171 30.485 14.4781 29.466 14.4751 29.456L16.3971 28.908C16.4071 28.936 17.4871 32.012 20.3751 33.222C22.4691 34.099 25.0421 33.82 28.0231 32.39C39.6011 26.836 45.1251 29.744 45.3551 29.87L44.3881 31.622C44.3481 31.601 39.4181 29.142 28.8881 34.192C25.3581 35.886 22.2261 36.176 19.5761 35.055C18.7751 34.716 18.0861 34.276 17.4981 33.79C18.2671 35.764 19.6081 37.485 21.3651 38.697C23.1491 39.931 26.4721 42.222 25.6171 45.684Z" fill="#C64940"/>
<path d="M27.074 27.586C21.704 27.586 19.469 23.892 19.441 23.846L21.168 22.836L20.305 23.341L21.164 22.83C21.272 23.009 23.878 27.165 30.902 24.935C32.442 24.141 42.94 18.933 46.521 22.646L45.082 24.035C43.103 21.983 35.853 24.611 31.75 26.749L31.596 26.813C29.892 27.364 28.389 27.586 27.074 27.586Z" fill="#C64940"/>
</g>
<defs>
<clipPath id="clip0_49_270">
<rect width="49.818" height="49.818" fill="white"/>
</clipPath>
</defs>
</svg>
