<svg width="184" height="61" viewBox="0 0 184 61" fill="none" xmlns="http://www.w3.org/2000/svg">
<path d="M70.8179 32.9717C70.5473 33.0183 70.2626 33.051 69.9639 33.0697C69.6746 33.0883 69.3993 33.0977 69.1379 33.0977C68.8859 33.0977 68.6059 33.0883 68.2979 33.0697C67.9899 33.051 67.7006 33.0183 67.4299 32.9717V14.0157L67.6259 13.8477H70.7899V15.2897C70.7899 16.027 70.7946 16.769 70.8039 17.5157C70.8133 18.2623 70.8179 18.995 70.8179 19.7137V32.9717ZM78.9379 13.8477C78.9939 14.0343 79.0359 14.2537 79.0639 14.5057C79.0919 14.7483 79.1059 14.9677 79.1059 15.1637C79.1059 15.7143 78.9519 16.1157 78.6439 16.3677C78.3359 16.6103 77.8693 16.7317 77.2439 16.7317H73.2959C72.5399 16.7317 71.8493 16.727 71.2239 16.7177C70.5986 16.699 70.0106 16.6803 69.4599 16.6617V13.8477H78.9379ZM77.3979 21.9817C77.4539 22.187 77.4959 22.425 77.5239 22.6957C77.5519 22.957 77.5659 23.181 77.5659 23.3677C77.5659 23.5543 77.5519 23.783 77.5239 24.0537C77.4959 24.315 77.4539 24.553 77.3979 24.7677H71.8259C71.4713 24.7677 71.0839 24.763 70.6639 24.7537C70.2439 24.7443 69.8659 24.735 69.5299 24.7257V22.0237C69.8659 22.0143 70.2439 22.005 70.6639 21.9957C71.0839 21.9863 71.4713 21.9817 71.8259 21.9817H77.3979ZM95.0069 19.5457C95.0069 20.4137 94.8435 21.193 94.5169 21.8837C94.1995 22.5743 93.7702 23.1577 93.2289 23.6337C92.6969 24.1003 92.1135 24.441 91.4789 24.6557C91.9549 24.8237 92.3609 25.1317 92.6969 25.5797C93.0329 26.0183 93.3035 26.5177 93.5089 27.0777L94.6429 30.1297C94.8295 30.6523 95.0209 31.0723 95.2169 31.3897C95.4222 31.6977 95.6602 31.9543 95.9309 32.1597C95.7069 32.4677 95.3802 32.715 94.9509 32.9017C94.5215 33.0883 94.0922 33.1817 93.6629 33.1817C93.0375 33.1817 92.5802 33.0137 92.2909 32.6777C92.0015 32.3323 91.7355 31.8237 91.4929 31.1517L90.2049 27.5957C89.9809 26.989 89.6822 26.4803 89.3089 26.0697C88.9355 25.659 88.3289 25.4537 87.4889 25.4537H84.1149V22.8637C84.5162 22.845 84.9829 22.8263 85.5149 22.8077C86.0562 22.789 86.5789 22.775 87.0829 22.7657C87.5962 22.7563 88.0115 22.7517 88.3289 22.7517C89.1875 22.7517 89.8502 22.593 90.3169 22.2757C90.7835 21.9583 91.1055 21.557 91.2829 21.0717C91.4602 20.577 91.5489 20.0683 91.5489 19.5457C91.5489 19.0043 91.4602 18.491 91.2829 18.0057C91.1055 17.511 90.7835 17.1097 90.3169 16.8017C89.8502 16.4937 89.1875 16.3397 88.3289 16.3397C88.0769 16.3397 87.7875 16.3397 87.4609 16.3397C87.1435 16.3397 86.8122 16.3397 86.4669 16.3397C86.1215 16.3303 85.7995 16.321 85.5009 16.3117V32.9717C85.2302 33.0183 84.9455 33.051 84.6469 33.0697C84.3482 33.0883 84.0682 33.0977 83.8069 33.0977C83.5735 33.0977 83.3029 33.0883 82.9949 33.0697C82.6869 33.051 82.4022 33.0183 82.1409 32.9717V14.0017L82.3369 13.8197C83.4289 13.7917 84.4882 13.7683 85.5149 13.7497C86.5509 13.731 87.5589 13.7217 88.5389 13.7217C89.8362 13.7217 90.9702 13.941 91.9409 14.3797C92.9115 14.8183 93.6629 15.4717 94.1949 16.3397C94.7362 17.1983 95.0069 18.267 95.0069 19.5457ZM99.0527 14.0297L99.2347 13.8477H102.357V16.6197C102.357 17.0117 102.361 17.3383 102.371 17.5997C102.38 17.861 102.385 18.183 102.385 18.5657V28.6457C102.385 28.9257 102.38 29.187 102.371 29.4297C102.361 29.663 102.357 29.9243 102.357 30.2137V33.0137H100.999C100.401 33.0137 99.9253 32.8363 99.5707 32.4817C99.2253 32.1177 99.0527 31.6137 99.0527 30.9697V14.0297ZM109.161 21.9397C109.226 22.1543 109.273 22.397 109.301 22.6677C109.329 22.929 109.343 23.1483 109.343 23.3257C109.343 23.5123 109.329 23.7363 109.301 23.9977C109.273 24.2497 109.226 24.4923 109.161 24.7257H104.163C103.948 24.7257 103.663 24.721 103.309 24.7117C102.954 24.7023 102.585 24.6977 102.203 24.6977C101.829 24.6883 101.498 24.6837 101.209 24.6837V21.9817C101.498 21.9723 101.829 21.9677 102.203 21.9677C102.585 21.9583 102.954 21.9537 103.309 21.9537C103.663 21.9443 103.948 21.9397 104.163 21.9397H109.161ZM110.715 13.8477C110.771 14.0997 110.803 14.3377 110.813 14.5617C110.822 14.7857 110.827 14.991 110.827 15.1777C110.827 15.3737 110.803 15.6117 110.757 15.8917C110.719 16.1717 110.654 16.4377 110.561 16.6897H104.163C103.948 16.6897 103.663 16.6897 103.309 16.6897C102.954 16.6803 102.585 16.6757 102.203 16.6757C101.829 16.6663 101.498 16.657 101.209 16.6477V13.8477H110.715ZM111.303 30.1717C111.303 31.161 111.149 31.8843 110.841 32.3417C110.533 32.7897 109.945 33.0137 109.077 33.0137H101.209V30.2977C101.703 30.2697 102.184 30.2417 102.651 30.2137C103.117 30.1857 103.654 30.1717 104.261 30.1717H111.303ZM113.287 31.2637C113.333 30.7783 113.492 30.2977 113.763 29.8217C114.033 29.3457 114.337 28.9677 114.673 28.6877C115.485 29.2103 116.385 29.6537 117.375 30.0177C118.364 30.3817 119.344 30.5637 120.315 30.5637C121.36 30.5637 122.158 30.335 122.709 29.8777C123.269 29.411 123.549 28.8323 123.549 28.1417C123.549 27.5723 123.357 27.0543 122.975 26.5877C122.601 26.1117 122.009 25.701 121.197 25.3557L117.823 23.9417C116.656 23.447 115.713 22.8077 114.995 22.0237C114.285 21.2397 113.931 20.2317 113.931 18.9997C113.931 17.945 114.206 17.0023 114.757 16.1717C115.317 15.3317 116.082 14.6737 117.053 14.1977C118.023 13.7123 119.139 13.4697 120.399 13.4697C121.593 13.4697 122.723 13.6283 123.787 13.9457C124.86 14.2537 125.761 14.5897 126.489 14.9537C126.461 15.439 126.339 15.915 126.125 16.3817C125.919 16.8483 125.639 17.2357 125.285 17.5437C124.566 17.189 123.759 16.881 122.863 16.6197C121.976 16.3583 121.164 16.2277 120.427 16.2277C119.456 16.2277 118.705 16.4657 118.173 16.9417C117.641 17.4083 117.375 17.959 117.375 18.5937C117.375 19.1443 117.566 19.6017 117.949 19.9657C118.331 20.3203 118.859 20.6423 119.531 20.9317L122.905 22.3177C123.726 22.663 124.449 23.0923 125.075 23.6057C125.709 24.119 126.204 24.7117 126.559 25.3837C126.923 26.0557 127.105 26.807 127.105 27.6377C127.105 28.7203 126.843 29.6957 126.321 30.5637C125.807 31.4223 125.033 32.1037 123.997 32.6077C122.97 33.1023 121.673 33.3497 120.105 33.3497C118.947 33.3497 117.762 33.1677 116.549 32.8037C115.335 32.4303 114.248 31.917 113.287 31.2637ZM135.439 24.5437C135.337 24.5437 135.183 24.5437 134.977 24.5437C134.772 24.5343 134.562 24.5297 134.347 24.5297C134.142 24.5203 133.993 24.5157 133.899 24.5157C133.573 24.5157 133.237 24.5203 132.891 24.5297C132.546 24.539 132.21 24.5437 131.883 24.5437V21.6737C132.21 21.6737 132.546 21.6783 132.891 21.6877C133.237 21.697 133.573 21.7017 133.899 21.7017C133.993 21.7017 134.142 21.7017 134.347 21.7017C134.562 21.6923 134.772 21.6877 134.977 21.6877C135.183 21.6783 135.337 21.6737 135.439 21.6737H139.779C139.873 21.6737 140.022 21.6783 140.227 21.6877C140.433 21.6877 140.638 21.6923 140.843 21.7017C141.049 21.7017 141.207 21.7017 141.319 21.7017C141.646 21.7017 141.977 21.697 142.313 21.6877C142.659 21.6783 142.995 21.6737 143.321 21.6737V24.5437C142.995 24.5437 142.659 24.539 142.313 24.5297C141.977 24.5203 141.646 24.5157 141.319 24.5157C141.207 24.5157 141.049 24.5203 140.843 24.5297C140.638 24.5297 140.433 24.5343 140.227 24.5437C140.022 24.5437 139.873 24.5437 139.779 24.5437H135.439ZM133.927 32.9717C133.657 33.0183 133.367 33.051 133.059 33.0697C132.751 33.0883 132.471 33.0977 132.219 33.0977C131.986 33.0977 131.711 33.0883 131.393 33.0697C131.085 33.051 130.801 33.0183 130.539 32.9717V13.8477C130.801 13.801 131.085 13.7683 131.393 13.7497C131.711 13.731 131.986 13.7217 132.219 13.7217C132.471 13.7217 132.751 13.731 133.059 13.7497C133.367 13.7683 133.657 13.801 133.927 13.8477V19.6297C133.927 20.0217 133.923 20.3717 133.913 20.6797C133.904 20.9783 133.899 21.319 133.899 21.7017V24.5157C133.899 24.889 133.904 25.2297 133.913 25.5377C133.923 25.8457 133.927 26.1957 133.927 26.5877V32.9717ZM141.291 26.5877C141.291 26.1957 141.296 25.8457 141.305 25.5377C141.315 25.2297 141.319 24.889 141.319 24.5157V21.7017C141.319 21.319 141.315 20.9783 141.305 20.6797C141.296 20.3717 141.291 20.0217 141.291 19.6297V13.8477C141.553 13.801 141.833 13.7683 142.131 13.7497C142.439 13.731 142.715 13.7217 142.957 13.7217C143.191 13.7217 143.466 13.731 143.783 13.7497C144.101 13.7683 144.39 13.801 144.651 13.8477V32.9717C144.381 33.0183 144.101 33.051 143.811 33.0697C143.522 33.0883 143.247 33.0977 142.985 33.0977C142.733 33.0977 142.453 33.0883 142.145 33.0697C141.837 33.051 141.553 33.0183 141.291 32.9717V26.5877ZM149.502 14.0297L149.684 13.8477H152.806V16.6197C152.806 17.0117 152.811 17.3383 152.82 17.5997C152.829 17.861 152.834 18.183 152.834 18.5657V28.6457C152.834 28.9257 152.829 29.187 152.82 29.4297C152.811 29.663 152.806 29.9243 152.806 30.2137V33.0137H151.448C150.851 33.0137 150.375 32.8363 150.02 32.4817C149.675 32.1177 149.502 31.6137 149.502 30.9697V14.0297ZM159.61 21.9397C159.675 22.1543 159.722 22.397 159.75 22.6677C159.778 22.929 159.792 23.1483 159.792 23.3257C159.792 23.5123 159.778 23.7363 159.75 23.9977C159.722 24.2497 159.675 24.4923 159.61 24.7257H154.612C154.397 24.7257 154.113 24.721 153.758 24.7117C153.403 24.7023 153.035 24.6977 152.652 24.6977C152.279 24.6883 151.947 24.6837 151.658 24.6837V21.9817C151.947 21.9723 152.279 21.9677 152.652 21.9677C153.035 21.9583 153.403 21.9537 153.758 21.9537C154.113 21.9443 154.397 21.9397 154.612 21.9397H159.61ZM161.164 13.8477C161.22 14.0997 161.253 14.3377 161.262 14.5617C161.271 14.7857 161.276 14.991 161.276 15.1777C161.276 15.3737 161.253 15.6117 161.206 15.8917C161.169 16.1717 161.103 16.4377 161.01 16.6897H154.612C154.397 16.6897 154.113 16.6897 153.758 16.6897C153.403 16.6803 153.035 16.6757 152.652 16.6757C152.279 16.6663 151.947 16.657 151.658 16.6477V13.8477H161.164ZM161.752 30.1717C161.752 31.161 161.598 31.8843 161.29 32.3417C160.982 32.7897 160.394 33.0137 159.526 33.0137H151.658V30.2977C152.153 30.2697 152.633 30.2417 153.1 30.2137C153.567 30.1857 154.103 30.1717 154.71 30.1717H161.752ZM165.43 13.8897C165.701 13.8337 166.041 13.7917 166.452 13.7637C166.872 13.7357 167.199 13.7217 167.432 13.7217C167.684 13.7217 167.992 13.731 168.356 13.7497C168.729 13.7683 169.089 13.801 169.434 13.8477L168.552 17.7397L168.314 17.7957C168.361 18.4863 168.403 19.2563 168.44 20.1057C168.477 20.955 168.51 21.8137 168.538 22.6817C168.566 23.5403 168.58 24.329 168.58 25.0477V32.9717C168.3 33.0183 168.025 33.051 167.754 33.0697C167.493 33.0883 167.25 33.0977 167.026 33.0977C166.821 33.0977 166.569 33.0883 166.27 33.0697C165.981 33.051 165.701 33.0183 165.43 32.9717V13.8897ZM170.134 21.6737C169.807 20.9737 169.499 20.2923 169.21 19.6297C168.921 18.967 168.655 18.3463 168.412 17.7677L166.83 15.8917L169.434 13.8477L174.936 25.1317C175.291 25.8877 175.622 26.6203 175.93 27.3297C176.247 28.039 176.527 28.6737 176.77 29.2337L178.45 31.0117L175.706 32.9717L170.134 21.6737ZM179.724 13.8757V32.9297C179.453 32.9857 179.117 33.0277 178.716 33.0557C178.315 33.0837 177.974 33.0977 177.694 33.0977C177.414 33.0977 177.097 33.0883 176.742 33.0697C176.387 33.051 176.042 33.0183 175.706 32.9717L176.616 29.2617L176.868 29.2057C176.821 28.431 176.775 27.5957 176.728 26.6997C176.691 25.8037 176.663 24.931 176.644 24.0817C176.625 23.2323 176.616 22.4857 176.616 21.8417V15.7937C176.616 15.047 176.751 14.515 177.022 14.1977C177.302 13.871 177.778 13.7077 178.45 13.7077H179.556L179.724 13.8757Z" fill="white"/>
<path d="M99.0719 46.8677C99.0719 47.2197 99.0959 47.5797 99.1439 47.9477C99.1919 48.3117 99.2819 48.6497 99.4139 48.9617C99.5499 49.2697 99.7419 49.5197 99.9899 49.7117C100.242 49.8997 100.568 49.9937 100.968 49.9937C101.368 49.9937 101.692 49.8997 101.94 49.7117C102.188 49.5197 102.378 49.2697 102.51 48.9617C102.646 48.6497 102.738 48.3117 102.786 47.9477C102.834 47.5797 102.858 47.2197 102.858 46.8677C102.858 46.5157 102.834 46.1577 102.786 45.7937C102.738 45.4297 102.646 45.0937 102.51 44.7857C102.378 44.4777 102.188 44.2297 101.94 44.0417C101.692 43.8497 101.368 43.7537 100.968 43.7537C100.568 43.7537 100.242 43.8497 99.9899 44.0417C99.7419 44.2297 99.5499 44.4777 99.4139 44.7857C99.2819 45.0937 99.1919 45.4297 99.1439 45.7937C99.0959 46.1577 99.0719 46.5157 99.0719 46.8677ZM97.5599 46.8677C97.5599 46.0477 97.6819 45.3177 97.9259 44.6777C98.1739 44.0377 98.5499 43.5337 99.0539 43.1657C99.5579 42.7977 100.196 42.6137 100.968 42.6137C101.552 42.6137 102.058 42.7197 102.486 42.9317C102.914 43.1437 103.268 43.4417 103.548 43.8257C103.828 44.2097 104.036 44.6597 104.172 45.1757C104.312 45.6917 104.382 46.2557 104.382 46.8677C104.382 47.6917 104.258 48.4257 104.01 49.0697C103.762 49.7097 103.386 50.2137 102.882 50.5817C102.378 50.9497 101.74 51.1337 100.968 51.1337C100.384 51.1337 99.8779 51.0277 99.4499 50.8157C99.0219 50.6037 98.6679 50.3057 98.3879 49.9217C98.1079 49.5337 97.8999 49.0817 97.7639 48.5657C97.6279 48.0457 97.5599 47.4797 97.5599 46.8677ZM111.482 45.2177C111.482 45.5897 111.412 45.9237 111.272 46.2197C111.136 46.5157 110.952 46.7657 110.72 46.9697C110.492 47.1697 110.242 47.3157 109.97 47.4077C110.174 47.4797 110.348 47.6117 110.492 47.8037C110.636 47.9917 110.752 48.2057 110.84 48.4457L111.326 49.7537C111.406 49.9777 111.488 50.1577 111.572 50.2937C111.66 50.4257 111.762 50.5357 111.878 50.6237C111.782 50.7557 111.642 50.8617 111.458 50.9417C111.274 51.0217 111.09 51.0617 110.906 51.0617C110.638 51.0617 110.442 50.9897 110.318 50.8457C110.194 50.6977 110.08 50.4797 109.976 50.1917L109.424 48.6677C109.328 48.4077 109.2 48.1897 109.04 48.0137C108.88 47.8377 108.62 47.7497 108.26 47.7497H106.814V46.6397C106.986 46.6317 107.186 46.6237 107.414 46.6157C107.646 46.6077 107.87 46.6017 108.086 46.5977C108.306 46.5937 108.484 46.5917 108.62 46.5917C108.988 46.5917 109.272 46.5237 109.472 46.3877C109.672 46.2517 109.81 46.0797 109.886 45.8717C109.962 45.6597 110 45.4417 110 45.2177C110 44.9857 109.962 44.7657 109.886 44.5577C109.81 44.3457 109.672 44.1737 109.472 44.0417C109.272 43.9097 108.988 43.8437 108.62 43.8437C108.512 43.8437 108.388 43.8437 108.248 43.8437C108.112 43.8437 107.97 43.8437 107.822 43.8437C107.674 43.8397 107.536 43.8357 107.408 43.8317V50.9717C107.292 50.9917 107.17 51.0057 107.042 51.0137C106.914 51.0217 106.794 51.0257 106.682 51.0257C106.582 51.0257 106.466 51.0217 106.334 51.0137C106.202 51.0057 106.08 50.9917 105.968 50.9717V42.8417L106.052 42.7637C106.52 42.7517 106.974 42.7417 107.414 42.7337C107.858 42.7257 108.29 42.7217 108.71 42.7217C109.266 42.7217 109.752 42.8157 110.168 43.0037C110.584 43.1917 110.906 43.4717 111.134 43.8437C111.366 44.2117 111.482 44.6697 111.482 45.2177ZM119.022 43.4897C118.994 43.7057 118.91 43.9117 118.77 44.1077C118.63 44.3037 118.486 44.4517 118.338 44.5517C118.054 44.3397 117.728 44.1677 117.36 44.0357C116.992 43.9037 116.622 43.8377 116.25 43.8377C115.826 43.8377 115.448 43.9397 115.116 44.1437C114.784 44.3477 114.522 44.6777 114.33 45.1337C114.142 45.5897 114.048 46.1937 114.048 46.9457C114.048 47.9777 114.238 48.7377 114.618 49.2257C115.002 49.7137 115.572 49.9577 116.328 49.9577C116.74 49.9577 117.12 49.9137 117.468 49.8257C117.82 49.7377 118.094 49.6577 118.29 49.5857L119.034 50.6297C118.798 50.7177 118.52 50.7997 118.2 50.8757C117.88 50.9517 117.538 51.0137 117.174 51.0617C116.81 51.1097 116.444 51.1337 116.076 51.1337C115.436 51.1337 114.892 51.0257 114.444 50.8097C114 50.5937 113.638 50.2937 113.358 49.9097C113.082 49.5257 112.88 49.0797 112.752 48.5717C112.624 48.0597 112.56 47.5117 112.56 46.9277C112.56 46.1757 112.662 45.5277 112.866 44.9837C113.07 44.4397 113.346 43.9937 113.694 43.6457C114.042 43.2937 114.432 43.0337 114.864 42.8657C115.3 42.6977 115.748 42.6137 116.208 42.6137C116.716 42.6137 117.218 42.6937 117.714 42.8537C118.214 43.0137 118.65 43.2257 119.022 43.4897ZM117.666 48.5777C117.666 48.2977 117.674 48.0297 117.69 47.7737C117.706 47.5137 117.742 47.2797 117.798 47.0717L119.034 47.4917V50.6297L117.666 50.6477V48.5777ZM118.032 46.5677C118.408 46.5677 118.668 46.6517 118.812 46.8197C118.96 46.9837 119.034 47.2077 119.034 47.4917V47.7977H116.778C116.646 47.7977 116.526 47.7817 116.418 47.7497C116.31 47.7177 116.224 47.6577 116.16 47.5697C116.1 47.4817 116.07 47.3517 116.07 47.1797C116.07 47.0837 116.08 46.9797 116.1 46.8677C116.12 46.7557 116.146 46.6557 116.178 46.5677H118.032ZM122.652 42.7757C122.764 42.7557 122.9 42.7417 123.06 42.7337C123.224 42.7257 123.368 42.7217 123.492 42.7217C123.604 42.7217 123.74 42.7277 123.9 42.7397C124.064 42.7477 124.2 42.7617 124.308 42.7817L126.972 50.8817C126.868 50.9417 126.738 50.9857 126.582 51.0137C126.43 51.0457 126.282 51.0617 126.138 51.0617C125.906 51.0617 125.726 51.0097 125.598 50.9057C125.474 50.8017 125.366 50.5957 125.274 50.2877L124.074 46.4117C123.966 46.0677 123.854 45.6917 123.738 45.2837C123.622 44.8757 123.52 44.5017 123.432 44.1617H123.366C123.326 44.3537 123.276 44.5657 123.216 44.7977C123.156 45.0257 123.094 45.2497 123.03 45.4697C122.97 45.6897 122.916 45.8797 122.868 46.0397L121.326 50.9837C121.234 51.0037 121.134 51.0177 121.026 51.0257C120.922 51.0337 120.814 51.0377 120.702 51.0377C120.582 51.0377 120.458 51.0277 120.33 51.0077C120.206 50.9917 120.098 50.9697 120.006 50.9417L119.958 50.8697L122.652 42.7757ZM122.568 49.0637C122.528 49.0637 122.456 49.0637 122.352 49.0637C122.248 49.0597 122.142 49.0577 122.034 49.0577C121.93 49.0537 121.858 49.0517 121.818 49.0517H121.116L121.56 47.8937H122.178C122.222 47.8937 122.29 47.8937 122.382 47.8937C122.474 47.8897 122.566 47.8877 122.658 47.8877C122.754 47.8837 122.822 47.8817 122.862 47.8817H123.978C124.018 47.8817 124.086 47.8837 124.182 47.8877C124.278 47.8877 124.374 47.8897 124.47 47.8937C124.566 47.8937 124.636 47.8937 124.68 47.8937H125.316L125.694 49.0517H124.992C124.948 49.0517 124.872 49.0537 124.764 49.0577C124.66 49.0577 124.556 49.0597 124.452 49.0637C124.348 49.0637 124.276 49.0637 124.236 49.0637H122.568ZM128.21 42.7937C128.326 42.7697 128.472 42.7517 128.648 42.7397C128.828 42.7277 128.968 42.7217 129.068 42.7217C129.176 42.7217 129.308 42.7257 129.464 42.7337C129.624 42.7417 129.778 42.7557 129.926 42.7757L129.548 44.4437L129.446 44.4677C129.466 44.7637 129.484 45.0937 129.5 45.4577C129.516 45.8217 129.53 46.1897 129.542 46.5617C129.554 46.9297 129.56 47.2677 129.56 47.5757V50.9717C129.44 50.9917 129.322 51.0057 129.206 51.0137C129.094 51.0217 128.99 51.0257 128.894 51.0257C128.806 51.0257 128.698 51.0217 128.57 51.0137C128.446 51.0057 128.326 50.9917 128.21 50.9717V42.7937ZM130.226 46.1297C130.086 45.8297 129.954 45.5377 129.83 45.2537C129.706 44.9697 129.592 44.7037 129.488 44.4557L128.81 43.6517L129.926 42.7757L132.284 47.6117C132.436 47.9357 132.578 48.2497 132.71 48.5537C132.846 48.8577 132.966 49.1297 133.07 49.3697L133.79 50.1317L132.614 50.9717L130.226 46.1297ZM134.336 42.7877V50.9537C134.22 50.9777 134.076 50.9957 133.904 51.0077C133.732 51.0197 133.586 51.0257 133.466 51.0257C133.346 51.0257 133.21 51.0217 133.058 51.0137C132.906 51.0057 132.758 50.9917 132.614 50.9717L133.004 49.3817L133.112 49.3577C133.092 49.0257 133.072 48.6677 133.052 48.2837C133.036 47.8997 133.024 47.5257 133.016 47.1617C133.008 46.7977 133.004 46.4777 133.004 46.2017V43.6097C133.004 43.2897 133.062 43.0617 133.178 42.9257C133.298 42.7857 133.502 42.7157 133.79 42.7157H134.264L134.336 42.7877ZM136.461 42.7757C136.573 42.7557 136.695 42.7417 136.827 42.7337C136.963 42.7257 137.081 42.7217 137.181 42.7217C137.293 42.7217 137.413 42.7257 137.541 42.7337C137.673 42.7417 137.797 42.7557 137.913 42.7757V50.9717C137.797 50.9917 137.673 51.0057 137.541 51.0137C137.413 51.0217 137.293 51.0257 137.181 51.0257C137.081 51.0257 136.963 51.0217 136.827 51.0137C136.695 51.0057 136.573 50.9917 136.461 50.9717V42.7757ZM144.438 45.7217C144.442 45.4097 144.396 45.1057 144.3 44.8097C144.208 44.5097 144.046 44.2637 143.814 44.0717C143.586 43.8757 143.266 43.7777 142.854 43.7777C142.254 43.7777 141.806 44.0437 141.51 44.5757C141.214 45.1077 141.066 45.8877 141.066 46.9157C141.066 47.8717 141.232 48.6037 141.564 49.1117C141.9 49.6197 142.366 49.8737 142.962 49.8737C143.346 49.8737 143.712 49.7937 144.06 49.6337C144.412 49.4697 144.752 49.2517 145.08 48.9797C145.232 49.0797 145.376 49.2197 145.512 49.3997C145.652 49.5757 145.742 49.7477 145.782 49.9157C145.558 50.1357 145.286 50.3397 144.966 50.5277C144.65 50.7117 144.3 50.8597 143.916 50.9717C143.532 51.0797 143.132 51.1337 142.716 51.1337C142.128 51.1337 141.63 51.0157 141.222 50.7797C140.818 50.5397 140.492 50.2177 140.244 49.8137C140 49.4097 139.822 48.9577 139.71 48.4577C139.602 47.9537 139.548 47.4377 139.548 46.9097C139.548 45.9137 139.7 45.0997 140.004 44.4677C140.312 43.8317 140.718 43.3637 141.222 43.0637C141.73 42.7597 142.286 42.6077 142.89 42.6077C143.494 42.6077 144.016 42.7197 144.456 42.9437C144.896 43.1637 145.234 43.4557 145.47 43.8197C145.71 44.1797 145.83 44.5697 145.83 44.9897C145.83 45.2497 145.764 45.4517 145.632 45.5957C145.5 45.7357 145.294 45.8057 145.014 45.8057C144.902 45.8057 144.802 45.7977 144.714 45.7817C144.63 45.7657 144.538 45.7457 144.438 45.7217ZM149.211 50.2397C149.231 50.0317 149.299 49.8257 149.415 49.6217C149.531 49.4177 149.661 49.2557 149.805 49.1357C150.153 49.3597 150.539 49.5497 150.963 49.7057C151.387 49.8617 151.807 49.9397 152.223 49.9397C152.671 49.9397 153.013 49.8417 153.249 49.6457C153.489 49.4457 153.609 49.1977 153.609 48.9017C153.609 48.6577 153.527 48.4357 153.363 48.2357C153.203 48.0317 152.949 47.8557 152.601 47.7077L151.155 47.1017C150.655 46.8897 150.251 46.6157 149.943 46.2797C149.639 45.9437 149.487 45.5117 149.487 44.9837C149.487 44.5317 149.605 44.1277 149.841 43.7717C150.081 43.4117 150.409 43.1297 150.825 42.9257C151.241 42.7177 151.719 42.6137 152.259 42.6137C152.771 42.6137 153.255 42.6817 153.711 42.8177C154.171 42.9497 154.557 43.0937 154.869 43.2497C154.857 43.4577 154.805 43.6617 154.713 43.8617C154.625 44.0617 154.505 44.2277 154.353 44.3597C154.045 44.2077 153.699 44.0757 153.315 43.9637C152.935 43.8517 152.587 43.7957 152.271 43.7957C151.855 43.7957 151.533 43.8977 151.305 44.1017C151.077 44.3017 150.963 44.5377 150.963 44.8097C150.963 45.0457 151.045 45.2417 151.209 45.3977C151.373 45.5497 151.599 45.6877 151.887 45.8117L153.333 46.4057C153.685 46.5537 153.995 46.7377 154.263 46.9577C154.535 47.1777 154.747 47.4317 154.899 47.7197C155.055 48.0077 155.133 48.3297 155.133 48.6857C155.133 49.1497 155.021 49.5677 154.797 49.9397C154.577 50.3077 154.245 50.5997 153.801 50.8157C153.361 51.0277 152.805 51.1337 152.133 51.1337C151.637 51.1337 151.129 51.0557 150.609 50.8997C150.089 50.7397 149.623 50.5197 149.211 50.2397ZM155.442 43.9877C155.422 43.8837 155.408 43.7797 155.4 43.6757C155.392 43.5677 155.388 43.4717 155.388 43.3877C155.388 43.2957 155.392 43.1977 155.4 43.0937C155.408 42.9897 155.422 42.8837 155.442 42.7757H161.07C161.094 42.8557 161.112 42.9477 161.124 43.0517C161.14 43.1517 161.148 43.2477 161.148 43.3397C161.148 43.5757 161.084 43.7437 160.956 43.8437C160.828 43.9397 160.63 43.9877 160.362 43.9877H159.684C159.604 43.9877 159.486 43.9857 159.33 43.9817C159.178 43.9777 159.06 43.9757 158.976 43.9757H157.53C157.446 43.9757 157.328 43.9777 157.176 43.9817C157.024 43.9857 156.906 43.9877 156.822 43.9877H155.442ZM157.53 44.8637C157.53 44.6997 157.53 44.5537 157.53 44.4257C157.534 44.2937 157.536 44.1437 157.536 43.9757V43.3817H158.97V43.9757C158.97 44.1437 158.97 44.2937 158.97 44.4257C158.974 44.5537 158.976 44.6997 158.976 44.8637V50.9717C158.86 50.9917 158.736 51.0057 158.604 51.0137C158.476 51.0217 158.36 51.0257 158.256 51.0257C158.148 51.0257 158.028 51.0217 157.896 51.0137C157.768 51.0057 157.646 50.9917 157.53 50.9717V44.8637ZM162.974 46.8677C162.974 47.2197 162.998 47.5797 163.046 47.9477C163.094 48.3117 163.184 48.6497 163.316 48.9617C163.452 49.2697 163.644 49.5197 163.892 49.7117C164.144 49.8997 164.47 49.9937 164.87 49.9937C165.27 49.9937 165.594 49.8997 165.842 49.7117C166.09 49.5197 166.28 49.2697 166.412 48.9617C166.548 48.6497 166.64 48.3117 166.688 47.9477C166.736 47.5797 166.76 47.2197 166.76 46.8677C166.76 46.5157 166.736 46.1577 166.688 45.7937C166.64 45.4297 166.548 45.0937 166.412 44.7857C166.28 44.4777 166.09 44.2297 165.842 44.0417C165.594 43.8497 165.27 43.7537 164.87 43.7537C164.47 43.7537 164.144 43.8497 163.892 44.0417C163.644 44.2297 163.452 44.4777 163.316 44.7857C163.184 45.0937 163.094 45.4297 163.046 45.7937C162.998 46.1577 162.974 46.5157 162.974 46.8677ZM161.462 46.8677C161.462 46.0477 161.584 45.3177 161.828 44.6777C162.076 44.0377 162.452 43.5337 162.956 43.1657C163.46 42.7977 164.098 42.6137 164.87 42.6137C165.454 42.6137 165.96 42.7197 166.388 42.9317C166.816 43.1437 167.17 43.4417 167.45 43.8257C167.73 44.2097 167.938 44.6597 168.074 45.1757C168.214 45.6917 168.284 46.2557 168.284 46.8677C168.284 47.6917 168.16 48.4257 167.912 49.0697C167.664 49.7097 167.288 50.2137 166.784 50.5817C166.28 50.9497 165.642 51.1337 164.87 51.1337C164.286 51.1337 163.78 51.0277 163.352 50.8157C162.924 50.6037 162.57 50.3057 162.29 49.9217C162.01 49.5337 161.802 49.0817 161.666 48.5657C161.53 48.0457 161.462 47.4797 161.462 46.8677ZM175.384 45.2177C175.384 45.5897 175.314 45.9237 175.174 46.2197C175.038 46.5157 174.854 46.7657 174.622 46.9697C174.394 47.1697 174.144 47.3157 173.872 47.4077C174.076 47.4797 174.25 47.6117 174.394 47.8037C174.538 47.9917 174.654 48.2057 174.742 48.4457L175.228 49.7537C175.308 49.9777 175.39 50.1577 175.474 50.2937C175.562 50.4257 175.664 50.5357 175.78 50.6237C175.684 50.7557 175.544 50.8617 175.36 50.9417C175.176 51.0217 174.992 51.0617 174.808 51.0617C174.54 51.0617 174.344 50.9897 174.22 50.8457C174.096 50.6977 173.982 50.4797 173.878 50.1917L173.326 48.6677C173.23 48.4077 173.102 48.1897 172.942 48.0137C172.782 47.8377 172.522 47.7497 172.162 47.7497H170.716V46.6397C170.888 46.6317 171.088 46.6237 171.316 46.6157C171.548 46.6077 171.772 46.6017 171.988 46.5977C172.208 46.5937 172.386 46.5917 172.522 46.5917C172.89 46.5917 173.174 46.5237 173.374 46.3877C173.574 46.2517 173.712 46.0797 173.788 45.8717C173.864 45.6597 173.902 45.4417 173.902 45.2177C173.902 44.9857 173.864 44.7657 173.788 44.5577C173.712 44.3457 173.574 44.1737 173.374 44.0417C173.174 43.9097 172.89 43.8437 172.522 43.8437C172.414 43.8437 172.29 43.8437 172.15 43.8437C172.014 43.8437 171.872 43.8437 171.724 43.8437C171.576 43.8397 171.438 43.8357 171.31 43.8317V50.9717C171.194 50.9917 171.072 51.0057 170.944 51.0137C170.816 51.0217 170.696 51.0257 170.584 51.0257C170.484 51.0257 170.368 51.0217 170.236 51.0137C170.104 51.0057 169.982 50.9917 169.87 50.9717V42.8417L169.954 42.7637C170.422 42.7517 170.876 42.7417 171.316 42.7337C171.76 42.7257 172.192 42.7217 172.612 42.7217C173.168 42.7217 173.654 42.8157 174.07 43.0037C174.486 43.1917 174.808 43.4717 175.036 43.8437C175.268 44.2117 175.384 44.6697 175.384 45.2177ZM177.118 42.8537L177.196 42.7757H178.534V43.9637C178.534 44.1317 178.536 44.2717 178.54 44.3837C178.544 44.4957 178.546 44.6337 178.546 44.7977V49.1177C178.546 49.2377 178.544 49.3497 178.54 49.4537C178.536 49.5537 178.534 49.6657 178.534 49.7897V50.9897H177.952C177.696 50.9897 177.492 50.9137 177.34 50.7617C177.192 50.6057 177.118 50.3897 177.118 50.1137V42.8537ZM181.45 46.2437C181.478 46.3357 181.498 46.4397 181.51 46.5557C181.522 46.6677 181.528 46.7617 181.528 46.8377C181.528 46.9177 181.522 47.0137 181.51 47.1257C181.498 47.2337 181.478 47.3377 181.45 47.4377H179.308C179.216 47.4377 179.094 47.4357 178.942 47.4317C178.79 47.4277 178.632 47.4257 178.468 47.4257C178.308 47.4217 178.166 47.4197 178.042 47.4197V46.2617C178.166 46.2577 178.308 46.2557 178.468 46.2557C178.632 46.2517 178.79 46.2497 178.942 46.2497C179.094 46.2457 179.216 46.2437 179.308 46.2437H181.45ZM182.116 42.7757C182.14 42.8837 182.154 42.9857 182.158 43.0817C182.162 43.1777 182.164 43.2657 182.164 43.3457C182.164 43.4297 182.154 43.5317 182.134 43.6517C182.118 43.7717 182.09 43.8857 182.05 43.9937H179.308C179.216 43.9937 179.094 43.9937 178.942 43.9937C178.79 43.9897 178.632 43.9877 178.468 43.9877C178.308 43.9837 178.166 43.9797 178.042 43.9757V42.7757H182.116ZM182.368 49.7717C182.368 50.1957 182.302 50.5057 182.17 50.7017C182.038 50.8937 181.786 50.9897 181.414 50.9897H178.042V49.8257C178.254 49.8137 178.46 49.8017 178.66 49.7897C178.86 49.7777 179.09 49.7717 179.35 49.7717H182.368Z" fill="#86BC42"/>
<path opacity="0.2" d="M50.0054 60.0073C50.0054 59.4959 39.506 59.0747 26.5698 59.0747C13.6336 59.0747 3.13416 59.4959 3.13416 60.0073C3.13416 60.5187 13.6336 60.9399 26.5698 60.9399C39.5361 60.9399 50.0054 60.5187 50.0054 60.0073Z" fill="#5D5D5D"/>
<path d="M26.9007 12.7754C37.0993 12.7754 45.3724 21.0486 45.3724 31.2471V49.7188H26.9007C16.7022 49.7188 8.42899 41.4457 8.42899 31.2471V12.7754H26.9007Z" fill="#86BC42"/>
<path opacity="0.3" d="M42.725 21.7402C41.1907 23.5152 40.2581 25.8317 40.2581 28.3588C40.2581 32.1193 42.3038 35.3985 45.3424 37.1734V31.2469C45.3424 27.7872 44.4097 24.5381 42.725 21.7402Z" fill="#86BC42"/>
<path d="M35.4747 14.9111C32.5866 16.5658 30.6612 19.6644 30.6612 23.2445C30.6612 28.5393 34.9633 32.8413 40.2581 32.8413C42.1233 32.8413 43.8682 32.2998 45.3423 31.3672V31.2469C45.3423 24.147 41.3411 17.9797 35.4747 14.9111Z" fill="#86BC42"/>
<path opacity="0.5" d="M20.9741 16.355C16.2208 16.355 11.8586 18.0096 8.42899 20.8074V31.2768C8.42899 41.4753 16.7022 49.7485 26.9007 49.7485H35.7455C38.9645 46.1985 40.92 41.5054 40.92 36.3309C40.92 25.29 31.9849 16.355 20.9741 16.355Z" fill="#FFD96A"/>
<path d="M45.3423 49.6884L26.9007 49.7185C16.7022 49.7185 8.42899 41.4454 8.42899 31.2468V12.8052L45.3423 49.6884Z" fill="#86BC42"/>
<path opacity="0.3" d="M11.287 19.3936C11.287 33.4128 22.6588 44.7546 36.648 44.7546C37.8514 44.7546 39.0247 44.6643 40.1679 44.5139L11.5277 15.9038C11.3772 17.047 11.287 18.2203 11.287 19.3936Z" fill="#86BC42"/>
<path opacity="0.3" d="M45.3423 49.7185L8.57941 12.9556C12.9115 19.4237 17.9055 25.982 22.9898 31.3972C26.9609 35.609 38.423 45.0254 45.3423 49.7185Z" fill="#86BC42"/>
<path opacity="0.3" d="M20.4928 24.8389L8.42899 12.8052V31.2769C8.42899 39.4297 13.7238 46.3491 21.0343 48.7859C17.9055 45.6271 15.9801 41.2949 15.9801 36.5416C15.9801 32.029 17.6949 27.9375 20.4928 24.8389Z" fill="#86BC42"/>
<path opacity="0.3" d="M36.9188 41.2949C33.79 45.1156 29.0367 47.5825 23.7118 47.5825C20.1618 47.5825 16.8526 46.4995 14.1149 44.6343C17.4242 47.7931 21.9067 49.7486 26.8706 49.7486H45.3423V49.7185L36.9188 41.2949Z" fill="#86BC42"/>
<path opacity="0.3" d="M9.51202 23.8461C9.51202 20.8678 10.0235 17.9797 10.9861 15.3323L8.42899 12.8052V31.2769C8.42899 41.4755 16.7022 49.7486 26.9007 49.7486H45.3724V49.7185L43.5373 47.8834C40.8598 48.8461 38.0018 49.3575 34.9934 49.3575C20.9139 49.3274 9.51202 37.9255 9.51202 23.8461Z" fill="#FFD96A"/>
<path d="M45.0415 53.2986C46.3351 52.9376 47.6889 53.7198 48.0198 55.0134C48.3808 56.3071 47.5986 57.6608 46.2749 57.9918C44.9813 58.3528 43.6275 57.5706 43.2966 56.277C42.9657 54.9834 43.7479 53.6596 45.0415 53.2986ZM44.5601 51.4635C42.2436 52.0953 40.8598 54.4418 41.4915 56.7583C42.0932 59.0748 44.4699 60.4587 46.7864 59.8269C49.1028 59.1951 50.4867 56.8185 49.855 54.5321C49.2533 52.2156 46.8766 50.8618 44.5601 51.4635Z" fill="white"/>
<path opacity="0.5" d="M47.6287 57.1192C47.2978 57.5404 46.8465 57.8713 46.305 58.0217C45.0114 58.3827 43.6576 57.6005 43.3267 56.3069C43.086 55.3442 43.4169 54.3815 44.139 53.8099C43.778 53.2985 43.4771 52.7269 43.1763 52.1553C41.7322 53.1781 41.0102 55.0133 41.4916 56.8183C42.0932 59.1348 44.4699 60.5187 46.7864 59.8869C47.8694 59.5861 48.7419 58.9242 49.3135 58.0518C48.7419 57.7509 48.1703 57.4501 47.6287 57.1192Z" fill="white"/>
<path d="M9.30142 53.2985C10.595 52.9676 11.9488 53.7498 12.2798 55.0434C12.6107 56.337 11.8285 57.6908 10.5349 58.0218C9.24125 58.3527 7.88746 57.5705 7.55654 56.2769C7.22561 54.9833 8.0078 53.6295 9.30142 53.2985ZM8.82007 51.4634C6.50359 52.0651 5.11971 54.4417 5.7214 56.7582C6.32308 59.0747 8.69974 60.4586 11.0162 59.8569C13.3327 59.2552 14.7166 56.8786 14.145 54.5621C13.5132 52.2456 11.1366 50.8617 8.82007 51.4634Z" fill="white"/>
<path opacity="0.5" d="M11.8586 57.1496C11.5276 57.5707 11.0764 57.9017 10.5349 58.022C9.24125 58.3529 7.88746 57.5707 7.55653 56.2771C7.31585 55.3144 7.67687 54.3517 8.3688 53.7801C8.00779 53.2687 7.70695 52.6971 7.43619 52.1255C5.99215 53.1183 5.24004 54.9534 5.72139 56.7585C6.32308 59.0749 8.69973 60.4588 11.0162 59.8571C12.0992 59.5864 13.0018 58.8944 13.5433 58.022C12.9416 57.7813 12.4001 57.4805 11.8586 57.1496Z" fill="white"/>
<path d="M9.60226 11.5117C9.03066 11.5117 8.54931 11.0303 8.54931 10.4587C8.54931 7.99182 7.85738 6.1266 6.53367 4.89314C4.39769 2.8775 1.17868 3.08809 1.14859 3.08809C0.576992 3.14826 0.0655599 2.69699 0.0053914 2.12539C-0.0547771 1.55379 0.396486 1.04236 0.968087 0.98219C1.14859 0.98219 5.11971 0.681348 7.94763 3.29868C9.75268 4.95331 10.6552 7.36005 10.6552 10.4286C10.6552 11.0303 10.2039 11.5117 9.60226 11.5117Z" fill="white"/>
</svg>
