<svg width="119" height="48" viewBox="0 0 119 48" fill="none" xmlns="http://www.w3.org/2000/svg">
<path d="M5.81781 26C5.54715 26.0467 5.26248 26.0793 4.96381 26.098C4.67448 26.1167 4.39915 26.126 4.13781 26.126C3.88581 26.126 3.60581 26.1167 3.29781 26.098C2.98981 26.0793 2.70048 26.0467 2.42981 26V7.044L2.62581 6.876H5.78981V8.318C5.78981 9.05533 5.79448 9.79733 5.80381 10.544C5.81315 11.2907 5.81781 12.0233 5.81781 12.742V26ZM13.9378 6.876C13.9938 7.06267 14.0358 7.282 14.0638 7.534C14.0918 7.77667 14.1058 7.996 14.1058 8.192C14.1058 8.74267 13.9518 9.144 13.6438 9.396C13.3358 9.63867 12.8691 9.76 12.2438 9.76H8.29581C7.53981 9.76 6.84915 9.75533 6.22381 9.746C5.59848 9.72733 5.01048 9.70867 4.45981 9.69V6.876H13.9378ZM12.3978 15.01C12.4538 15.2153 12.4958 15.4533 12.5238 15.724C12.5518 15.9853 12.5658 16.2093 12.5658 16.396C12.5658 16.5827 12.5518 16.8113 12.5238 17.082C12.4958 17.3433 12.4538 17.5813 12.3978 17.796H6.82581C6.47115 17.796 6.08381 17.7913 5.66381 17.782C5.24381 17.7727 4.86581 17.7633 4.52981 17.754V15.052C4.86581 15.0427 5.24381 15.0333 5.66381 15.024C6.08381 15.0147 6.47115 15.01 6.82581 15.01H12.3978ZM30.0068 12.574C30.0068 13.442 29.8434 14.2213 29.5168 14.912C29.1994 15.6027 28.7701 16.186 28.2288 16.662C27.6968 17.1287 27.1134 17.4693 26.4788 17.684C26.9548 17.852 27.3608 18.16 27.6968 18.608C28.0328 19.0467 28.3034 19.546 28.5088 20.106L29.6428 23.158C29.8294 23.6807 30.0208 24.1007 30.2167 24.418C30.4221 24.726 30.6601 24.9827 30.9308 25.188C30.7068 25.496 30.3801 25.7433 29.9508 25.93C29.5214 26.1167 29.0921 26.21 28.6628 26.21C28.0374 26.21 27.5801 26.042 27.2908 25.706C27.0014 25.3607 26.7354 24.852 26.4928 24.18L25.2048 20.624C24.9808 20.0173 24.6821 19.5087 24.3088 19.098C23.9354 18.6873 23.3288 18.482 22.4888 18.482H19.1148V15.892C19.5161 15.8733 19.9828 15.8547 20.5148 15.836C21.0561 15.8173 21.5788 15.8033 22.0828 15.794C22.5961 15.7847 23.0114 15.78 23.3288 15.78C24.1874 15.78 24.8501 15.6213 25.3168 15.304C25.7834 14.9867 26.1054 14.5853 26.2828 14.1C26.4601 13.6053 26.5488 13.0967 26.5488 12.574C26.5488 12.0327 26.4601 11.5193 26.2828 11.034C26.1054 10.5393 25.7834 10.138 25.3168 9.83C24.8501 9.522 24.1874 9.368 23.3288 9.368C23.0768 9.368 22.7874 9.368 22.4608 9.368C22.1434 9.368 21.8121 9.368 21.4668 9.368C21.1214 9.35867 20.7994 9.34933 20.5008 9.34V26C20.2301 26.0467 19.9454 26.0793 19.6468 26.098C19.3481 26.1167 19.0681 26.126 18.8068 26.126C18.5734 26.126 18.3028 26.1167 17.9948 26.098C17.6868 26.0793 17.4021 26.0467 17.1408 26V7.03L17.3368 6.848C18.4288 6.82 19.4881 6.79667 20.5148 6.778C21.5508 6.75933 22.5588 6.75 23.5388 6.75C24.8361 6.75 25.9701 6.96933 26.9408 7.408C27.9114 7.84667 28.6628 8.5 29.1948 9.368C29.7361 10.2267 30.0068 11.2953 30.0068 12.574ZM34.0525 7.058L34.2345 6.876H37.3565V9.648C37.3565 10.04 37.3612 10.3667 37.3705 10.628C37.3799 10.8893 37.3845 11.2113 37.3845 11.594V21.674C37.3845 21.954 37.3799 22.2153 37.3705 22.458C37.3612 22.6913 37.3565 22.9527 37.3565 23.242V26.042H35.9985C35.4012 26.042 34.9252 25.8647 34.5705 25.51C34.2252 25.146 34.0525 24.642 34.0525 23.998V7.058ZM44.1605 14.968C44.2259 15.1827 44.2725 15.4253 44.3005 15.696C44.3285 15.9573 44.3425 16.1767 44.3425 16.354C44.3425 16.5407 44.3285 16.7647 44.3005 17.026C44.2725 17.278 44.2259 17.5207 44.1605 17.754H39.1625C38.9479 17.754 38.6632 17.7493 38.3085 17.74C37.9539 17.7307 37.5852 17.726 37.2025 17.726C36.8292 17.7167 36.4979 17.712 36.2085 17.712V15.01C36.4979 15.0007 36.8292 14.996 37.2025 14.996C37.5852 14.9867 37.9539 14.982 38.3085 14.982C38.6632 14.9727 38.9479 14.968 39.1625 14.968H44.1605ZM45.7145 6.876C45.7705 7.128 45.8032 7.366 45.8125 7.59C45.8219 7.814 45.8265 8.01933 45.8265 8.206C45.8265 8.402 45.8032 8.64 45.7565 8.92C45.7192 9.2 45.6539 9.466 45.5605 9.718H39.1625C38.9479 9.718 38.6632 9.718 38.3085 9.718C37.9539 9.70867 37.5852 9.704 37.2025 9.704C36.8292 9.69467 36.4979 9.68533 36.2085 9.676V6.876H45.7145ZM46.3025 23.2C46.3025 24.1893 46.1485 24.9127 45.8405 25.37C45.5325 25.818 44.9445 26.042 44.0765 26.042H36.2085V23.326C36.7032 23.298 37.1839 23.27 37.6505 23.242C38.1172 23.214 38.6539 23.2 39.2605 23.2H46.3025ZM48.2866 24.292C48.3333 23.8067 48.4919 23.326 48.7626 22.85C49.0333 22.374 49.3366 21.996 49.6726 21.716C50.4846 22.2387 51.3853 22.682 52.3746 23.046C53.3639 23.41 54.3439 23.592 55.3146 23.592C56.3599 23.592 57.1579 23.3633 57.7086 22.906C58.2686 22.4393 58.5486 21.8607 58.5486 21.17C58.5486 20.6007 58.3573 20.0827 57.9746 19.616C57.6013 19.14 57.0086 18.7293 56.1966 18.384L52.8226 16.97C51.6559 16.4753 50.7133 15.836 49.9946 15.052C49.2853 14.268 48.9306 13.26 48.9306 12.028C48.9306 10.9733 49.2059 10.0307 49.7566 9.2C50.3166 8.36 51.0819 7.702 52.0526 7.226C53.0233 6.74067 54.1386 6.498 55.3986 6.498C56.5933 6.498 57.7226 6.65667 58.7866 6.974C59.8599 7.282 60.7606 7.618 61.4886 7.982C61.4606 8.46733 61.3393 8.94333 61.1246 9.41C60.9193 9.87667 60.6393 10.264 60.2846 10.572C59.5659 10.2173 58.7586 9.90933 57.8626 9.648C56.9759 9.38667 56.1639 9.256 55.4266 9.256C54.4559 9.256 53.7046 9.494 53.1726 9.97C52.6406 10.4367 52.3746 10.9873 52.3746 11.622C52.3746 12.1727 52.5659 12.63 52.9486 12.994C53.3313 13.3487 53.8586 13.6707 54.5306 13.96L57.9046 15.346C58.7259 15.6913 59.4493 16.1207 60.0746 16.634C60.7093 17.1473 61.2039 17.74 61.5586 18.412C61.9226 19.084 62.1046 19.8353 62.1046 20.666C62.1046 21.7487 61.8433 22.724 61.3206 23.592C60.8073 24.4507 60.0326 25.132 58.9966 25.636C57.9699 26.1307 56.6726 26.378 55.1046 26.378C53.9473 26.378 52.7619 26.196 51.5486 25.832C50.3353 25.4587 49.2479 24.9453 48.2866 24.292ZM70.4392 17.572C70.3365 17.572 70.1825 17.572 69.9772 17.572C69.7719 17.5627 69.5619 17.558 69.3472 17.558C69.1419 17.5487 68.9925 17.544 68.8992 17.544C68.5725 17.544 68.2365 17.5487 67.8912 17.558C67.5459 17.5673 67.2099 17.572 66.8832 17.572V14.702C67.2099 14.702 67.5459 14.7067 67.8912 14.716C68.2365 14.7253 68.5725 14.73 68.8992 14.73C68.9925 14.73 69.1419 14.73 69.3472 14.73C69.5619 14.7207 69.7719 14.716 69.9772 14.716C70.1825 14.7067 70.3365 14.702 70.4392 14.702H74.7792C74.8725 14.702 75.0219 14.7067 75.2272 14.716C75.4325 14.716 75.6379 14.7207 75.8432 14.73C76.0485 14.73 76.2072 14.73 76.3192 14.73C76.6459 14.73 76.9772 14.7253 77.3132 14.716C77.6585 14.7067 77.9945 14.702 78.3212 14.702V17.572C77.9945 17.572 77.6585 17.5673 77.3132 17.558C76.9772 17.5487 76.6459 17.544 76.3192 17.544C76.2072 17.544 76.0485 17.5487 75.8432 17.558C75.6379 17.558 75.4325 17.5627 75.2272 17.572C75.0219 17.572 74.8725 17.572 74.7792 17.572H70.4392ZM68.9272 26C68.6565 26.0467 68.3672 26.0793 68.0592 26.098C67.7512 26.1167 67.4712 26.126 67.2192 26.126C66.9859 26.126 66.7105 26.1167 66.3932 26.098C66.0852 26.0793 65.8005 26.0467 65.5392 26V6.876C65.8005 6.82933 66.0852 6.79667 66.3932 6.778C66.7105 6.75933 66.9859 6.75 67.2192 6.75C67.4712 6.75 67.7512 6.75933 68.0592 6.778C68.3672 6.79667 68.6565 6.82933 68.9272 6.876V12.658C68.9272 13.05 68.9225 13.4 68.9132 13.708C68.9039 14.0067 68.8992 14.3473 68.8992 14.73V17.544C68.8992 17.9173 68.9039 18.258 68.9132 18.566C68.9225 18.874 68.9272 19.224 68.9272 19.616V26ZM76.2912 19.616C76.2912 19.224 76.2959 18.874 76.3052 18.566C76.3145 18.258 76.3192 17.9173 76.3192 17.544V14.73C76.3192 14.3473 76.3145 14.0067 76.3052 13.708C76.2959 13.4 76.2912 13.05 76.2912 12.658V6.876C76.5525 6.82933 76.8325 6.79667 77.1312 6.778C77.4392 6.75933 77.7145 6.75 77.9572 6.75C78.1905 6.75 78.4659 6.75933 78.7832 6.778C79.1005 6.79667 79.3899 6.82933 79.6512 6.876V26C79.3805 26.0467 79.1005 26.0793 78.8112 26.098C78.5219 26.1167 78.2465 26.126 77.9852 26.126C77.7332 26.126 77.4532 26.1167 77.1452 26.098C76.8372 26.0793 76.5525 26.0467 76.2912 26V19.616ZM84.5018 7.058L84.6838 6.876H87.8058V9.648C87.8058 10.04 87.8104 10.3667 87.8198 10.628C87.8291 10.8893 87.8338 11.2113 87.8338 11.594V21.674C87.8338 21.954 87.8291 22.2153 87.8198 22.458C87.8104 22.6913 87.8058 22.9527 87.8058 23.242V26.042H86.4478C85.8504 26.042 85.3744 25.8647 85.0198 25.51C84.6744 25.146 84.5018 24.642 84.5018 23.998V7.058ZM94.6098 14.968C94.6751 15.1827 94.7218 15.4253 94.7498 15.696C94.7778 15.9573 94.7918 16.1767 94.7918 16.354C94.7918 16.5407 94.7778 16.7647 94.7498 17.026C94.7218 17.278 94.6751 17.5207 94.6098 17.754H89.6118C89.3971 17.754 89.1124 17.7493 88.7578 17.74C88.4031 17.7307 88.0344 17.726 87.6518 17.726C87.2784 17.7167 86.9471 17.712 86.6578 17.712V15.01C86.9471 15.0007 87.2784 14.996 87.6518 14.996C88.0344 14.9867 88.4031 14.982 88.7578 14.982C89.1124 14.9727 89.3971 14.968 89.6118 14.968H94.6098ZM96.1637 6.876C96.2198 7.128 96.2524 7.366 96.2618 7.59C96.2711 7.814 96.2758 8.01933 96.2758 8.206C96.2758 8.402 96.2524 8.64 96.2058 8.92C96.1684 9.2 96.1031 9.466 96.0098 9.718H89.6118C89.3971 9.718 89.1124 9.718 88.7578 9.718C88.4031 9.70867 88.0344 9.704 87.6518 9.704C87.2784 9.69467 86.9471 9.68533 86.6578 9.676V6.876H96.1637ZM96.7518 23.2C96.7518 24.1893 96.5978 24.9127 96.2898 25.37C95.9818 25.818 95.3938 26.042 94.5258 26.042H86.6578V23.326C87.1524 23.298 87.6331 23.27 88.0998 23.242C88.5664 23.214 89.1031 23.2 89.7098 23.2H96.7518ZM100.43 6.918C100.7 6.862 101.041 6.82 101.452 6.792C101.872 6.764 102.198 6.75 102.432 6.75C102.684 6.75 102.992 6.75933 103.356 6.778C103.729 6.79667 104.088 6.82933 104.434 6.876L103.552 10.768L103.314 10.824C103.36 11.5147 103.402 12.2847 103.44 13.134C103.477 13.9833 103.51 14.842 103.538 15.71C103.566 16.5687 103.58 17.3573 103.58 18.076V26C103.3 26.0467 103.024 26.0793 102.754 26.098C102.492 26.1167 102.25 26.126 102.026 26.126C101.82 26.126 101.568 26.1167 101.27 26.098C100.98 26.0793 100.7 26.0467 100.43 26V6.918ZM105.134 14.702C104.807 14.002 104.499 13.3207 104.21 12.658C103.92 11.9953 103.654 11.3747 103.412 10.796L101.83 8.92L104.434 6.876L109.936 18.16C110.29 18.916 110.622 19.6487 110.93 20.358C111.247 21.0673 111.527 21.702 111.77 22.262L113.45 24.04L110.706 26L105.134 14.702ZM114.724 6.904V25.958C114.453 26.014 114.117 26.056 113.716 26.084C113.314 26.112 112.974 26.126 112.694 26.126C112.414 26.126 112.096 26.1167 111.742 26.098C111.387 26.0793 111.042 26.0467 110.706 26L111.616 22.29L111.868 22.234C111.821 21.4593 111.774 20.624 111.728 19.728C111.69 18.832 111.662 17.9593 111.644 17.11C111.625 16.2607 111.616 15.514 111.616 14.87V8.822C111.616 8.07533 111.751 7.54333 112.022 7.226C112.302 6.89933 112.778 6.736 113.45 6.736H114.556L114.724 6.904Z" fill="white"/>
<path d="M34.0718 39.896C34.0718 40.248 34.0958 40.608 34.1438 40.976C34.1918 41.34 34.2818 41.678 34.4138 41.99C34.5498 42.298 34.7418 42.548 34.9898 42.74C35.2418 42.928 35.5678 43.022 35.9678 43.022C36.3678 43.022 36.6918 42.928 36.9398 42.74C37.1878 42.548 37.3778 42.298 37.5098 41.99C37.6458 41.678 37.7378 41.34 37.7858 40.976C37.8338 40.608 37.8578 40.248 37.8578 39.896C37.8578 39.544 37.8338 39.186 37.7858 38.822C37.7378 38.458 37.6458 38.122 37.5098 37.814C37.3778 37.506 37.1878 37.258 36.9398 37.07C36.6918 36.878 36.3678 36.782 35.9678 36.782C35.5678 36.782 35.2418 36.878 34.9898 37.07C34.7418 37.258 34.5498 37.506 34.4138 37.814C34.2818 38.122 34.1918 38.458 34.1438 38.822C34.0958 39.186 34.0718 39.544 34.0718 39.896ZM32.5598 39.896C32.5598 39.076 32.6818 38.346 32.9258 37.706C33.1738 37.066 33.5498 36.562 34.0538 36.194C34.5578 35.826 35.1958 35.642 35.9678 35.642C36.5518 35.642 37.0578 35.748 37.4858 35.96C37.9138 36.172 38.2678 36.47 38.5478 36.854C38.8278 37.238 39.0358 37.688 39.1718 38.204C39.3118 38.72 39.3818 39.284 39.3818 39.896C39.3818 40.72 39.2578 41.454 39.0098 42.098C38.7618 42.738 38.3858 43.242 37.8818 43.61C37.3778 43.978 36.7398 44.162 35.9678 44.162C35.3838 44.162 34.8778 44.056 34.4498 43.844C34.0218 43.632 33.6678 43.334 33.3878 42.95C33.1078 42.562 32.8998 42.11 32.7638 41.594C32.6278 41.074 32.5598 40.508 32.5598 39.896ZM46.4817 38.246C46.4817 38.618 46.4117 38.952 46.2717 39.248C46.1357 39.544 45.9517 39.794 45.7197 39.998C45.4917 40.198 45.2417 40.344 44.9697 40.436C45.1737 40.508 45.3477 40.64 45.4917 40.832C45.6357 41.02 45.7517 41.234 45.8397 41.474L46.3257 42.782C46.4057 43.006 46.4877 43.186 46.5717 43.322C46.6597 43.454 46.7617 43.564 46.8777 43.652C46.7817 43.784 46.6417 43.89 46.4577 43.97C46.2737 44.05 46.0897 44.09 45.9057 44.09C45.6377 44.09 45.4417 44.018 45.3177 43.874C45.1937 43.726 45.0797 43.508 44.9757 43.22L44.4237 41.696C44.3277 41.436 44.1997 41.218 44.0397 41.042C43.8797 40.866 43.6197 40.778 43.2597 40.778H41.8137V39.668C41.9857 39.66 42.1857 39.652 42.4137 39.644C42.6457 39.636 42.8697 39.63 43.0857 39.626C43.3057 39.622 43.4837 39.62 43.6197 39.62C43.9877 39.62 44.2717 39.552 44.4717 39.416C44.6717 39.28 44.8097 39.108 44.8857 38.9C44.9617 38.688 44.9997 38.47 44.9997 38.246C44.9997 38.014 44.9617 37.794 44.8857 37.586C44.8097 37.374 44.6717 37.202 44.4717 37.07C44.2717 36.938 43.9877 36.872 43.6197 36.872C43.5117 36.872 43.3877 36.872 43.2477 36.872C43.1117 36.872 42.9697 36.872 42.8217 36.872C42.6737 36.868 42.5357 36.864 42.4077 36.86V44C42.2917 44.02 42.1697 44.034 42.0417 44.042C41.9137 44.05 41.7937 44.054 41.6817 44.054C41.5817 44.054 41.4657 44.05 41.3337 44.042C41.2017 44.034 41.0797 44.02 40.9677 44V35.87L41.0517 35.792C41.5197 35.78 41.9737 35.77 42.4137 35.762C42.8577 35.754 43.2897 35.75 43.7097 35.75C44.2657 35.75 44.7517 35.844 45.1677 36.032C45.5837 36.22 45.9057 36.5 46.1337 36.872C46.3657 37.24 46.4817 37.698 46.4817 38.246ZM54.0218 36.518C53.9938 36.734 53.9098 36.94 53.7698 37.136C53.6298 37.332 53.4858 37.48 53.3378 37.58C53.0538 37.368 52.7278 37.196 52.3598 37.064C51.9918 36.932 51.6218 36.866 51.2498 36.866C50.8258 36.866 50.4478 36.968 50.1158 37.172C49.7838 37.376 49.5218 37.706 49.3298 38.162C49.1418 38.618 49.0478 39.222 49.0478 39.974C49.0478 41.006 49.2378 41.766 49.6178 42.254C50.0018 42.742 50.5718 42.986 51.3278 42.986C51.7398 42.986 52.1198 42.942 52.4678 42.854C52.8198 42.766 53.0938 42.686 53.2898 42.614L54.0338 43.658C53.7978 43.746 53.5198 43.828 53.1998 43.904C52.8798 43.98 52.5378 44.042 52.1738 44.09C51.8098 44.138 51.4438 44.162 51.0758 44.162C50.4358 44.162 49.8918 44.054 49.4438 43.838C48.9998 43.622 48.6378 43.322 48.3578 42.938C48.0818 42.554 47.8798 42.108 47.7518 41.6C47.6238 41.088 47.5598 40.54 47.5598 39.956C47.5598 39.204 47.6618 38.556 47.8658 38.012C48.0698 37.468 48.3458 37.022 48.6938 36.674C49.0418 36.322 49.4318 36.062 49.8638 35.894C50.2998 35.726 50.7478 35.642 51.2078 35.642C51.7158 35.642 52.2178 35.722 52.7138 35.882C53.2138 36.042 53.6498 36.254 54.0218 36.518ZM52.6658 41.606C52.6658 41.326 52.6738 41.058 52.6898 40.802C52.7058 40.542 52.7418 40.308 52.7978 40.1L54.0338 40.52V43.658L52.6658 43.676V41.606ZM53.0318 39.596C53.4078 39.596 53.6678 39.68 53.8118 39.848C53.9598 40.012 54.0338 40.236 54.0338 40.52V40.826H51.7778C51.6458 40.826 51.5258 40.81 51.4178 40.778C51.3098 40.746 51.2238 40.686 51.1598 40.598C51.0998 40.51 51.0698 40.38 51.0698 40.208C51.0698 40.112 51.0798 40.008 51.0998 39.896C51.1198 39.784 51.1458 39.684 51.1778 39.596H53.0318ZM57.6519 35.804C57.7639 35.784 57.8999 35.77 58.0599 35.762C58.2239 35.754 58.3679 35.75 58.4919 35.75C58.6039 35.75 58.7399 35.756 58.8999 35.768C59.0639 35.776 59.1999 35.79 59.3079 35.81L61.9719 43.91C61.8679 43.97 61.7379 44.014 61.5819 44.042C61.4299 44.074 61.2819 44.09 61.1379 44.09C60.9059 44.09 60.7259 44.038 60.5979 43.934C60.4739 43.83 60.3659 43.624 60.2739 43.316L59.0739 39.44C58.9659 39.096 58.8539 38.72 58.7379 38.312C58.6219 37.904 58.5199 37.53 58.4319 37.19H58.3659C58.3259 37.382 58.2759 37.594 58.2159 37.826C58.1559 38.054 58.0939 38.278 58.0299 38.498C57.9699 38.718 57.9159 38.908 57.8679 39.068L56.3259 44.012C56.2339 44.032 56.1339 44.046 56.0259 44.054C55.9219 44.062 55.8139 44.066 55.7019 44.066C55.5819 44.066 55.4579 44.056 55.3299 44.036C55.2059 44.02 55.0979 43.998 55.0059 43.97L54.9579 43.898L57.6519 35.804ZM57.5679 42.092C57.5279 42.092 57.4559 42.092 57.3519 42.092C57.2479 42.088 57.1419 42.086 57.0339 42.086C56.9299 42.082 56.8579 42.08 56.8179 42.08H56.1159L56.5599 40.922H57.1779C57.2219 40.922 57.2899 40.922 57.3819 40.922C57.4739 40.918 57.5659 40.916 57.6579 40.916C57.7539 40.912 57.8219 40.91 57.8619 40.91H58.9779C59.0179 40.91 59.0859 40.912 59.1819 40.916C59.2779 40.916 59.3739 40.918 59.4699 40.922C59.5659 40.922 59.6359 40.922 59.6799 40.922H60.3159L60.6939 42.08H59.9919C59.9479 42.08 59.8719 42.082 59.7639 42.086C59.6599 42.086 59.5559 42.088 59.4519 42.092C59.3479 42.092 59.2759 42.092 59.2359 42.092H57.5679ZM63.2099 35.822C63.3259 35.798 63.4719 35.78 63.6479 35.768C63.8279 35.756 63.9679 35.75 64.0679 35.75C64.1759 35.75 64.3079 35.754 64.4639 35.762C64.6239 35.77 64.7779 35.784 64.9259 35.804L64.5479 37.472L64.4459 37.496C64.4659 37.792 64.4839 38.122 64.4999 38.486C64.5159 38.85 64.5299 39.218 64.5419 39.59C64.5539 39.958 64.5599 40.296 64.5599 40.604V44C64.4399 44.02 64.3219 44.034 64.2059 44.042C64.0939 44.05 63.9899 44.054 63.8939 44.054C63.8059 44.054 63.6979 44.05 63.5699 44.042C63.4459 44.034 63.3259 44.02 63.2099 44V35.822ZM65.2259 39.158C65.0859 38.858 64.9539 38.566 64.8299 38.282C64.7059 37.998 64.5919 37.732 64.4879 37.484L63.8099 36.68L64.9259 35.804L67.2839 40.64C67.4359 40.964 67.5779 41.278 67.7099 41.582C67.8459 41.886 67.9659 42.158 68.0699 42.398L68.7899 43.16L67.6139 44L65.2259 39.158ZM69.3359 35.816V43.982C69.2199 44.006 69.0759 44.024 68.9039 44.036C68.7319 44.048 68.5859 44.054 68.4659 44.054C68.3459 44.054 68.2099 44.05 68.0579 44.042C67.9059 44.034 67.7579 44.02 67.6139 44L68.0039 42.41L68.1119 42.386C68.0919 42.054 68.0719 41.696 68.0519 41.312C68.0359 40.928 68.0239 40.554 68.0159 40.19C68.0079 39.826 68.0039 39.506 68.0039 39.23V36.638C68.0039 36.318 68.0619 36.09 68.1779 35.954C68.2979 35.814 68.5019 35.744 68.7899 35.744H69.2639L69.3359 35.816ZM71.4607 35.804C71.5727 35.784 71.6947 35.77 71.8267 35.762C71.9627 35.754 72.0807 35.75 72.1807 35.75C72.2927 35.75 72.4127 35.754 72.5407 35.762C72.6727 35.77 72.7967 35.784 72.9127 35.804V44C72.7967 44.02 72.6727 44.034 72.5407 44.042C72.4127 44.05 72.2927 44.054 72.1807 44.054C72.0807 44.054 71.9627 44.05 71.8267 44.042C71.6947 44.034 71.5727 44.02 71.4607 44V35.804ZM79.4381 38.75C79.4421 38.438 79.3961 38.134 79.3001 37.838C79.2081 37.538 79.0461 37.292 78.8141 37.1C78.5861 36.904 78.2661 36.806 77.8541 36.806C77.2541 36.806 76.8061 37.072 76.5101 37.604C76.2141 38.136 76.0661 38.916 76.0661 39.944C76.0661 40.9 76.2321 41.632 76.5641 42.14C76.9001 42.648 77.3661 42.902 77.9621 42.902C78.3461 42.902 78.7121 42.822 79.0601 42.662C79.4121 42.498 79.7521 42.28 80.0801 42.008C80.2321 42.108 80.3761 42.248 80.5121 42.428C80.6521 42.604 80.7421 42.776 80.7821 42.944C80.5581 43.164 80.2861 43.368 79.9661 43.556C79.6501 43.74 79.3001 43.888 78.9161 44C78.5321 44.108 78.1321 44.162 77.7161 44.162C77.1281 44.162 76.6301 44.044 76.2221 43.808C75.8181 43.568 75.4921 43.246 75.2441 42.842C75.0001 42.438 74.8221 41.986 74.7101 41.486C74.6021 40.982 74.5481 40.466 74.5481 39.938C74.5481 38.942 74.7001 38.128 75.0041 37.496C75.3121 36.86 75.7181 36.392 76.2221 36.092C76.7301 35.788 77.2861 35.636 77.8901 35.636C78.4941 35.636 79.0161 35.748 79.4561 35.972C79.8961 36.192 80.2341 36.484 80.4701 36.848C80.7101 37.208 80.8301 37.598 80.8301 38.018C80.8301 38.278 80.7641 38.48 80.6321 38.624C80.5001 38.764 80.2941 38.834 80.0141 38.834C79.9021 38.834 79.8021 38.826 79.7141 38.81C79.6301 38.794 79.5381 38.774 79.4381 38.75ZM84.2104 43.268C84.2304 43.06 84.2984 42.854 84.4144 42.65C84.5304 42.446 84.6604 42.284 84.8044 42.164C85.1524 42.388 85.5384 42.578 85.9624 42.734C86.3864 42.89 86.8064 42.968 87.2224 42.968C87.6704 42.968 88.0124 42.87 88.2484 42.674C88.4884 42.474 88.6084 42.226 88.6084 41.93C88.6084 41.686 88.5264 41.464 88.3624 41.264C88.2024 41.06 87.9484 40.884 87.6004 40.736L86.1544 40.13C85.6544 39.918 85.2504 39.644 84.9424 39.308C84.6384 38.972 84.4864 38.54 84.4864 38.012C84.4864 37.56 84.6044 37.156 84.8404 36.8C85.0804 36.44 85.4084 36.158 85.8244 35.954C86.2404 35.746 86.7184 35.642 87.2584 35.642C87.7704 35.642 88.2544 35.71 88.7104 35.846C89.1704 35.978 89.5564 36.122 89.8684 36.278C89.8564 36.486 89.8044 36.69 89.7124 36.89C89.6244 37.09 89.5044 37.256 89.3524 37.388C89.0444 37.236 88.6984 37.104 88.3144 36.992C87.9344 36.88 87.5864 36.824 87.2704 36.824C86.8544 36.824 86.5324 36.926 86.3044 37.13C86.0764 37.33 85.9624 37.566 85.9624 37.838C85.9624 38.074 86.0444 38.27 86.2084 38.426C86.3724 38.578 86.5984 38.716 86.8864 38.84L88.3324 39.434C88.6844 39.582 88.9944 39.766 89.2624 39.986C89.5344 40.206 89.7464 40.46 89.8984 40.748C90.0544 41.036 90.1324 41.358 90.1324 41.714C90.1324 42.178 90.0204 42.596 89.7964 42.968C89.5764 43.336 89.2444 43.628 88.8004 43.844C88.3604 44.056 87.8044 44.162 87.1324 44.162C86.6364 44.162 86.1284 44.084 85.6084 43.928C85.0884 43.768 84.6224 43.548 84.2104 43.268ZM90.4417 37.016C90.4217 36.912 90.4077 36.808 90.3997 36.704C90.3917 36.596 90.3877 36.5 90.3877 36.416C90.3877 36.324 90.3917 36.226 90.3997 36.122C90.4077 36.018 90.4217 35.912 90.4417 35.804H96.0697C96.0937 35.884 96.1117 35.976 96.1237 36.08C96.1397 36.18 96.1477 36.276 96.1477 36.368C96.1477 36.604 96.0837 36.772 95.9557 36.872C95.8277 36.968 95.6297 37.016 95.3617 37.016H94.6837C94.6037 37.016 94.4857 37.014 94.3297 37.01C94.1777 37.006 94.0597 37.004 93.9757 37.004H92.5297C92.4457 37.004 92.3277 37.006 92.1757 37.01C92.0237 37.014 91.9057 37.016 91.8217 37.016H90.4417ZM92.5297 37.892C92.5297 37.728 92.5297 37.582 92.5297 37.454C92.5337 37.322 92.5357 37.172 92.5357 37.004V36.41H93.9697V37.004C93.9697 37.172 93.9697 37.322 93.9697 37.454C93.9737 37.582 93.9757 37.728 93.9757 37.892V44C93.8597 44.02 93.7357 44.034 93.6037 44.042C93.4757 44.05 93.3597 44.054 93.2557 44.054C93.1477 44.054 93.0277 44.05 92.8957 44.042C92.7677 44.034 92.6457 44.02 92.5297 44V37.892ZM97.9742 39.896C97.9742 40.248 97.9982 40.608 98.0462 40.976C98.0942 41.34 98.1842 41.678 98.3162 41.99C98.4522 42.298 98.6442 42.548 98.8922 42.74C99.1442 42.928 99.4702 43.022 99.8702 43.022C100.27 43.022 100.594 42.928 100.842 42.74C101.09 42.548 101.28 42.298 101.412 41.99C101.548 41.678 101.64 41.34 101.688 40.976C101.736 40.608 101.76 40.248 101.76 39.896C101.76 39.544 101.736 39.186 101.688 38.822C101.64 38.458 101.548 38.122 101.412 37.814C101.28 37.506 101.09 37.258 100.842 37.07C100.594 36.878 100.27 36.782 99.8702 36.782C99.4702 36.782 99.1442 36.878 98.8922 37.07C98.6442 37.258 98.4522 37.506 98.3162 37.814C98.1842 38.122 98.0942 38.458 98.0462 38.822C97.9982 39.186 97.9742 39.544 97.9742 39.896ZM96.4622 39.896C96.4622 39.076 96.5842 38.346 96.8282 37.706C97.0762 37.066 97.4522 36.562 97.9562 36.194C98.4602 35.826 99.0982 35.642 99.8702 35.642C100.454 35.642 100.96 35.748 101.388 35.96C101.816 36.172 102.17 36.47 102.45 36.854C102.73 37.238 102.938 37.688 103.074 38.204C103.214 38.72 103.284 39.284 103.284 39.896C103.284 40.72 103.16 41.454 102.912 42.098C102.664 42.738 102.288 43.242 101.784 43.61C101.28 43.978 100.642 44.162 99.8702 44.162C99.2862 44.162 98.7802 44.056 98.3522 43.844C97.9242 43.632 97.5702 43.334 97.2902 42.95C97.0102 42.562 96.8022 42.11 96.6662 41.594C96.5302 41.074 96.4622 40.508 96.4622 39.896ZM110.384 38.246C110.384 38.618 110.314 38.952 110.174 39.248C110.038 39.544 109.854 39.794 109.622 39.998C109.394 40.198 109.144 40.344 108.872 40.436C109.076 40.508 109.25 40.64 109.394 40.832C109.538 41.02 109.654 41.234 109.742 41.474L110.228 42.782C110.308 43.006 110.39 43.186 110.474 43.322C110.562 43.454 110.664 43.564 110.78 43.652C110.684 43.784 110.544 43.89 110.36 43.97C110.176 44.05 109.992 44.09 109.808 44.09C109.54 44.09 109.344 44.018 109.22 43.874C109.096 43.726 108.982 43.508 108.878 43.22L108.326 41.696C108.23 41.436 108.102 41.218 107.942 41.042C107.782 40.866 107.522 40.778 107.162 40.778H105.716V39.668C105.888 39.66 106.088 39.652 106.316 39.644C106.548 39.636 106.772 39.63 106.988 39.626C107.208 39.622 107.386 39.62 107.522 39.62C107.89 39.62 108.174 39.552 108.374 39.416C108.574 39.28 108.712 39.108 108.788 38.9C108.864 38.688 108.902 38.47 108.902 38.246C108.902 38.014 108.864 37.794 108.788 37.586C108.712 37.374 108.574 37.202 108.374 37.07C108.174 36.938 107.89 36.872 107.522 36.872C107.414 36.872 107.29 36.872 107.15 36.872C107.014 36.872 106.872 36.872 106.724 36.872C106.576 36.868 106.438 36.864 106.31 36.86V44C106.194 44.02 106.072 44.034 105.944 44.042C105.816 44.05 105.696 44.054 105.584 44.054C105.484 44.054 105.368 44.05 105.236 44.042C105.104 44.034 104.982 44.02 104.87 44V35.87L104.954 35.792C105.422 35.78 105.876 35.77 106.316 35.762C106.76 35.754 107.192 35.75 107.612 35.75C108.168 35.75 108.654 35.844 109.07 36.032C109.486 36.22 109.808 36.5 110.036 36.872C110.268 37.24 110.384 37.698 110.384 38.246ZM112.118 35.882L112.196 35.804H113.534V36.992C113.534 37.16 113.536 37.3 113.54 37.412C113.544 37.524 113.546 37.662 113.546 37.826V42.146C113.546 42.266 113.544 42.378 113.54 42.482C113.536 42.582 113.534 42.694 113.534 42.818V44.018H112.952C112.696 44.018 112.492 43.942 112.34 43.79C112.192 43.634 112.118 43.418 112.118 43.142V35.882ZM116.45 39.272C116.478 39.364 116.498 39.468 116.51 39.584C116.522 39.696 116.528 39.79 116.528 39.866C116.528 39.946 116.522 40.042 116.51 40.154C116.498 40.262 116.478 40.366 116.45 40.466H114.308C114.216 40.466 114.094 40.464 113.942 40.46C113.79 40.456 113.632 40.454 113.468 40.454C113.308 40.45 113.166 40.448 113.042 40.448V39.29C113.166 39.286 113.308 39.284 113.468 39.284C113.632 39.28 113.79 39.278 113.942 39.278C114.094 39.274 114.216 39.272 114.308 39.272H116.45ZM117.116 35.804C117.14 35.912 117.154 36.014 117.158 36.11C117.162 36.206 117.164 36.294 117.164 36.374C117.164 36.458 117.154 36.56 117.134 36.68C117.118 36.8 117.09 36.914 117.05 37.022H114.308C114.216 37.022 114.094 37.022 113.942 37.022C113.79 37.018 113.632 37.016 113.468 37.016C113.308 37.012 113.166 37.008 113.042 37.004V35.804H117.116ZM117.368 42.8C117.368 43.224 117.302 43.534 117.17 43.73C117.038 43.922 116.786 44.018 116.414 44.018H113.042V42.854C113.254 42.842 113.46 42.83 113.66 42.818C113.86 42.806 114.09 42.8 114.35 42.8H117.368Z" fill="#86BC42"/>
</svg>
