<svg width="184" height="60" viewBox="0 0 184 60" fill="none" xmlns="http://www.w3.org/2000/svg">
<path d="M70.8179 32C70.5473 32.0467 70.2626 32.0793 69.9639 32.098C69.6746 32.1167 69.3993 32.126 69.1379 32.126C68.8859 32.126 68.6059 32.1167 68.2979 32.098C67.9899 32.0793 67.7006 32.0467 67.4299 32V13.044L67.6259 12.876H70.7899V14.318C70.7899 15.0553 70.7946 15.7973 70.8039 16.544C70.8133 17.2907 70.8179 18.0233 70.8179 18.742V32ZM78.9379 12.876C78.9939 13.0627 79.0359 13.282 79.0639 13.534C79.0919 13.7767 79.1059 13.996 79.1059 14.192C79.1059 14.7427 78.9519 15.144 78.6439 15.396C78.3359 15.6387 77.8693 15.76 77.2439 15.76H73.2959C72.5399 15.76 71.8493 15.7553 71.2239 15.746C70.5986 15.7273 70.0106 15.7087 69.4599 15.69V12.876H78.9379ZM77.3979 21.01C77.4539 21.2153 77.4959 21.4533 77.5239 21.724C77.5519 21.9853 77.5659 22.2093 77.5659 22.396C77.5659 22.5827 77.5519 22.8113 77.5239 23.082C77.4959 23.3433 77.4539 23.5813 77.3979 23.796H71.8259C71.4713 23.796 71.0839 23.7913 70.6639 23.782C70.2439 23.7727 69.8659 23.7633 69.5299 23.754V21.052C69.8659 21.0427 70.2439 21.0333 70.6639 21.024C71.0839 21.0147 71.4713 21.01 71.8259 21.01H77.3979ZM95.0069 18.574C95.0069 19.442 94.8435 20.2213 94.5169 20.912C94.1995 21.6027 93.7702 22.186 93.2289 22.662C92.6969 23.1287 92.1135 23.4693 91.4789 23.684C91.9549 23.852 92.3609 24.16 92.6969 24.608C93.0329 25.0467 93.3035 25.546 93.5089 26.106L94.6429 29.158C94.8295 29.6807 95.0209 30.1007 95.2169 30.418C95.4222 30.726 95.6602 30.9827 95.9309 31.188C95.7069 31.496 95.3802 31.7433 94.9509 31.93C94.5215 32.1167 94.0922 32.21 93.6629 32.21C93.0375 32.21 92.5802 32.042 92.2909 31.706C92.0015 31.3607 91.7355 30.852 91.4929 30.18L90.2049 26.624C89.9809 26.0173 89.6822 25.5087 89.3089 25.098C88.9355 24.6873 88.3289 24.482 87.4889 24.482H84.1149V21.892C84.5162 21.8733 84.9829 21.8547 85.5149 21.836C86.0562 21.8173 86.5789 21.8033 87.0829 21.794C87.5962 21.7847 88.0115 21.78 88.3289 21.78C89.1875 21.78 89.8502 21.6213 90.3169 21.304C90.7835 20.9867 91.1055 20.5853 91.2829 20.1C91.4602 19.6053 91.5489 19.0967 91.5489 18.574C91.5489 18.0327 91.4602 17.5193 91.2829 17.034C91.1055 16.5393 90.7835 16.138 90.3169 15.83C89.8502 15.522 89.1875 15.368 88.3289 15.368C88.0769 15.368 87.7875 15.368 87.4609 15.368C87.1435 15.368 86.8122 15.368 86.4669 15.368C86.1215 15.3587 85.7995 15.3493 85.5009 15.34V32C85.2302 32.0467 84.9455 32.0793 84.6469 32.098C84.3482 32.1167 84.0682 32.126 83.8069 32.126C83.5735 32.126 83.3029 32.1167 82.9949 32.098C82.6869 32.0793 82.4022 32.0467 82.1409 32V13.03L82.3369 12.848C83.4289 12.82 84.4882 12.7967 85.5149 12.778C86.5509 12.7593 87.5589 12.75 88.5389 12.75C89.8362 12.75 90.9702 12.9693 91.9409 13.408C92.9115 13.8467 93.6629 14.5 94.1949 15.368C94.7362 16.2267 95.0069 17.2953 95.0069 18.574ZM99.0527 13.058L99.2347 12.876H102.357V15.648C102.357 16.04 102.361 16.3667 102.371 16.628C102.38 16.8893 102.385 17.2113 102.385 17.594V27.674C102.385 27.954 102.38 28.2153 102.371 28.458C102.361 28.6913 102.357 28.9527 102.357 29.242V32.042H100.999C100.401 32.042 99.9253 31.8647 99.5707 31.51C99.2253 31.146 99.0527 30.642 99.0527 29.998V13.058ZM109.161 20.968C109.226 21.1827 109.273 21.4253 109.301 21.696C109.329 21.9573 109.343 22.1767 109.343 22.354C109.343 22.5407 109.329 22.7647 109.301 23.026C109.273 23.278 109.226 23.5207 109.161 23.754H104.163C103.948 23.754 103.663 23.7493 103.309 23.74C102.954 23.7307 102.585 23.726 102.203 23.726C101.829 23.7167 101.498 23.712 101.209 23.712V21.01C101.498 21.0007 101.829 20.996 102.203 20.996C102.585 20.9867 102.954 20.982 103.309 20.982C103.663 20.9727 103.948 20.968 104.163 20.968H109.161ZM110.715 12.876C110.771 13.128 110.803 13.366 110.813 13.59C110.822 13.814 110.827 14.0193 110.827 14.206C110.827 14.402 110.803 14.64 110.757 14.92C110.719 15.2 110.654 15.466 110.561 15.718H104.163C103.948 15.718 103.663 15.718 103.309 15.718C102.954 15.7087 102.585 15.704 102.203 15.704C101.829 15.6947 101.498 15.6853 101.209 15.676V12.876H110.715ZM111.303 29.2C111.303 30.1893 111.149 30.9127 110.841 31.37C110.533 31.818 109.945 32.042 109.077 32.042H101.209V29.326C101.703 29.298 102.184 29.27 102.651 29.242C103.117 29.214 103.654 29.2 104.261 29.2H111.303ZM113.287 30.292C113.333 29.8067 113.492 29.326 113.763 28.85C114.033 28.374 114.337 27.996 114.673 27.716C115.485 28.2387 116.385 28.682 117.375 29.046C118.364 29.41 119.344 29.592 120.315 29.592C121.36 29.592 122.158 29.3633 122.709 28.906C123.269 28.4393 123.549 27.8607 123.549 27.17C123.549 26.6007 123.357 26.0827 122.975 25.616C122.601 25.14 122.009 24.7293 121.197 24.384L117.823 22.97C116.656 22.4753 115.713 21.836 114.995 21.052C114.285 20.268 113.931 19.26 113.931 18.028C113.931 16.9733 114.206 16.0307 114.757 15.2C115.317 14.36 116.082 13.702 117.053 13.226C118.023 12.7407 119.139 12.498 120.399 12.498C121.593 12.498 122.723 12.6567 123.787 12.974C124.86 13.282 125.761 13.618 126.489 13.982C126.461 14.4673 126.339 14.9433 126.125 15.41C125.919 15.8767 125.639 16.264 125.285 16.572C124.566 16.2173 123.759 15.9093 122.863 15.648C121.976 15.3867 121.164 15.256 120.427 15.256C119.456 15.256 118.705 15.494 118.173 15.97C117.641 16.4367 117.375 16.9873 117.375 17.622C117.375 18.1727 117.566 18.63 117.949 18.994C118.331 19.3487 118.859 19.6707 119.531 19.96L122.905 21.346C123.726 21.6913 124.449 22.1207 125.075 22.634C125.709 23.1473 126.204 23.74 126.559 24.412C126.923 25.084 127.105 25.8353 127.105 26.666C127.105 27.7487 126.843 28.724 126.321 29.592C125.807 30.4507 125.033 31.132 123.997 31.636C122.97 32.1307 121.673 32.378 120.105 32.378C118.947 32.378 117.762 32.196 116.549 31.832C115.335 31.4587 114.248 30.9453 113.287 30.292ZM135.439 23.572C135.337 23.572 135.183 23.572 134.977 23.572C134.772 23.5627 134.562 23.558 134.347 23.558C134.142 23.5487 133.993 23.544 133.899 23.544C133.573 23.544 133.237 23.5487 132.891 23.558C132.546 23.5673 132.21 23.572 131.883 23.572V20.702C132.21 20.702 132.546 20.7067 132.891 20.716C133.237 20.7253 133.573 20.73 133.899 20.73C133.993 20.73 134.142 20.73 134.347 20.73C134.562 20.7207 134.772 20.716 134.977 20.716C135.183 20.7067 135.337 20.702 135.439 20.702H139.779C139.873 20.702 140.022 20.7067 140.227 20.716C140.433 20.716 140.638 20.7207 140.843 20.73C141.049 20.73 141.207 20.73 141.319 20.73C141.646 20.73 141.977 20.7253 142.313 20.716C142.659 20.7067 142.995 20.702 143.321 20.702V23.572C142.995 23.572 142.659 23.5673 142.313 23.558C141.977 23.5487 141.646 23.544 141.319 23.544C141.207 23.544 141.049 23.5487 140.843 23.558C140.638 23.558 140.433 23.5627 140.227 23.572C140.022 23.572 139.873 23.572 139.779 23.572H135.439ZM133.927 32C133.657 32.0467 133.367 32.0793 133.059 32.098C132.751 32.1167 132.471 32.126 132.219 32.126C131.986 32.126 131.711 32.1167 131.393 32.098C131.085 32.0793 130.801 32.0467 130.539 32V12.876C130.801 12.8293 131.085 12.7967 131.393 12.778C131.711 12.7593 131.986 12.75 132.219 12.75C132.471 12.75 132.751 12.7593 133.059 12.778C133.367 12.7967 133.657 12.8293 133.927 12.876V18.658C133.927 19.05 133.923 19.4 133.913 19.708C133.904 20.0067 133.899 20.3473 133.899 20.73V23.544C133.899 23.9173 133.904 24.258 133.913 24.566C133.923 24.874 133.927 25.224 133.927 25.616V32ZM141.291 25.616C141.291 25.224 141.296 24.874 141.305 24.566C141.315 24.258 141.319 23.9173 141.319 23.544V20.73C141.319 20.3473 141.315 20.0067 141.305 19.708C141.296 19.4 141.291 19.05 141.291 18.658V12.876C141.553 12.8293 141.833 12.7967 142.131 12.778C142.439 12.7593 142.715 12.75 142.957 12.75C143.191 12.75 143.466 12.7593 143.783 12.778C144.101 12.7967 144.39 12.8293 144.651 12.876V32C144.381 32.0467 144.101 32.0793 143.811 32.098C143.522 32.1167 143.247 32.126 142.985 32.126C142.733 32.126 142.453 32.1167 142.145 32.098C141.837 32.0793 141.553 32.0467 141.291 32V25.616ZM149.502 13.058L149.684 12.876H152.806V15.648C152.806 16.04 152.811 16.3667 152.82 16.628C152.829 16.8893 152.834 17.2113 152.834 17.594V27.674C152.834 27.954 152.829 28.2153 152.82 28.458C152.811 28.6913 152.806 28.9527 152.806 29.242V32.042H151.448C150.851 32.042 150.375 31.8647 150.02 31.51C149.675 31.146 149.502 30.642 149.502 29.998V13.058ZM159.61 20.968C159.675 21.1827 159.722 21.4253 159.75 21.696C159.778 21.9573 159.792 22.1767 159.792 22.354C159.792 22.5407 159.778 22.7647 159.75 23.026C159.722 23.278 159.675 23.5207 159.61 23.754H154.612C154.397 23.754 154.113 23.7493 153.758 23.74C153.403 23.7307 153.035 23.726 152.652 23.726C152.279 23.7167 151.947 23.712 151.658 23.712V21.01C151.947 21.0007 152.279 20.996 152.652 20.996C153.035 20.9867 153.403 20.982 153.758 20.982C154.113 20.9727 154.397 20.968 154.612 20.968H159.61ZM161.164 12.876C161.22 13.128 161.253 13.366 161.262 13.59C161.271 13.814 161.276 14.0193 161.276 14.206C161.276 14.402 161.253 14.64 161.206 14.92C161.169 15.2 161.103 15.466 161.01 15.718H154.612C154.397 15.718 154.113 15.718 153.758 15.718C153.403 15.7087 153.035 15.704 152.652 15.704C152.279 15.6947 151.947 15.6853 151.658 15.676V12.876H161.164ZM161.752 29.2C161.752 30.1893 161.598 30.9127 161.29 31.37C160.982 31.818 160.394 32.042 159.526 32.042H151.658V29.326C152.153 29.298 152.633 29.27 153.1 29.242C153.567 29.214 154.103 29.2 154.71 29.2H161.752ZM165.43 12.918C165.701 12.862 166.041 12.82 166.452 12.792C166.872 12.764 167.199 12.75 167.432 12.75C167.684 12.75 167.992 12.7593 168.356 12.778C168.729 12.7967 169.089 12.8293 169.434 12.876L168.552 16.768L168.314 16.824C168.361 17.5147 168.403 18.2847 168.44 19.134C168.477 19.9833 168.51 20.842 168.538 21.71C168.566 22.5687 168.58 23.3573 168.58 24.076V32C168.3 32.0467 168.025 32.0793 167.754 32.098C167.493 32.1167 167.25 32.126 167.026 32.126C166.821 32.126 166.569 32.1167 166.27 32.098C165.981 32.0793 165.701 32.0467 165.43 32V12.918ZM170.134 20.702C169.807 20.002 169.499 19.3207 169.21 18.658C168.921 17.9953 168.655 17.3747 168.412 16.796L166.83 14.92L169.434 12.876L174.936 24.16C175.291 24.916 175.622 25.6487 175.93 26.358C176.247 27.0673 176.527 27.702 176.77 28.262L178.45 30.04L175.706 32L170.134 20.702ZM179.724 12.904V31.958C179.453 32.014 179.117 32.056 178.716 32.084C178.315 32.112 177.974 32.126 177.694 32.126C177.414 32.126 177.097 32.1167 176.742 32.098C176.387 32.0793 176.042 32.0467 175.706 32L176.616 28.29L176.868 28.234C176.821 27.4593 176.775 26.624 176.728 25.728C176.691 24.832 176.663 23.9593 176.644 23.11C176.625 22.2607 176.616 21.514 176.616 20.87V14.822C176.616 14.0753 176.751 13.5433 177.022 13.226C177.302 12.8993 177.778 12.736 178.45 12.736H179.556L179.724 12.904Z" fill="#41544A"/>
<path d="M99.0719 45.896C99.0719 46.248 99.0959 46.608 99.1439 46.976C99.1919 47.34 99.2819 47.678 99.4139 47.99C99.5499 48.298 99.7419 48.548 99.9899 48.74C100.242 48.928 100.568 49.022 100.968 49.022C101.368 49.022 101.692 48.928 101.94 48.74C102.188 48.548 102.378 48.298 102.51 47.99C102.646 47.678 102.738 47.34 102.786 46.976C102.834 46.608 102.858 46.248 102.858 45.896C102.858 45.544 102.834 45.186 102.786 44.822C102.738 44.458 102.646 44.122 102.51 43.814C102.378 43.506 102.188 43.258 101.94 43.07C101.692 42.878 101.368 42.782 100.968 42.782C100.568 42.782 100.242 42.878 99.9899 43.07C99.7419 43.258 99.5499 43.506 99.4139 43.814C99.2819 44.122 99.1919 44.458 99.1439 44.822C99.0959 45.186 99.0719 45.544 99.0719 45.896ZM97.5599 45.896C97.5599 45.076 97.6819 44.346 97.9259 43.706C98.1739 43.066 98.5499 42.562 99.0539 42.194C99.5579 41.826 100.196 41.642 100.968 41.642C101.552 41.642 102.058 41.748 102.486 41.96C102.914 42.172 103.268 42.47 103.548 42.854C103.828 43.238 104.036 43.688 104.172 44.204C104.312 44.72 104.382 45.284 104.382 45.896C104.382 46.72 104.258 47.454 104.01 48.098C103.762 48.738 103.386 49.242 102.882 49.61C102.378 49.978 101.74 50.162 100.968 50.162C100.384 50.162 99.8779 50.056 99.4499 49.844C99.0219 49.632 98.6679 49.334 98.3879 48.95C98.1079 48.562 97.8999 48.11 97.7639 47.594C97.6279 47.074 97.5599 46.508 97.5599 45.896ZM111.482 44.246C111.482 44.618 111.412 44.952 111.272 45.248C111.136 45.544 110.952 45.794 110.72 45.998C110.492 46.198 110.242 46.344 109.97 46.436C110.174 46.508 110.348 46.64 110.492 46.832C110.636 47.02 110.752 47.234 110.84 47.474L111.326 48.782C111.406 49.006 111.488 49.186 111.572 49.322C111.66 49.454 111.762 49.564 111.878 49.652C111.782 49.784 111.642 49.89 111.458 49.97C111.274 50.05 111.09 50.09 110.906 50.09C110.638 50.09 110.442 50.018 110.318 49.874C110.194 49.726 110.08 49.508 109.976 49.22L109.424 47.696C109.328 47.436 109.2 47.218 109.04 47.042C108.88 46.866 108.62 46.778 108.26 46.778H106.814V45.668C106.986 45.66 107.186 45.652 107.414 45.644C107.646 45.636 107.87 45.63 108.086 45.626C108.306 45.622 108.484 45.62 108.62 45.62C108.988 45.62 109.272 45.552 109.472 45.416C109.672 45.28 109.81 45.108 109.886 44.9C109.962 44.688 110 44.47 110 44.246C110 44.014 109.962 43.794 109.886 43.586C109.81 43.374 109.672 43.202 109.472 43.07C109.272 42.938 108.988 42.872 108.62 42.872C108.512 42.872 108.388 42.872 108.248 42.872C108.112 42.872 107.97 42.872 107.822 42.872C107.674 42.868 107.536 42.864 107.408 42.86V50C107.292 50.02 107.17 50.034 107.042 50.042C106.914 50.05 106.794 50.054 106.682 50.054C106.582 50.054 106.466 50.05 106.334 50.042C106.202 50.034 106.08 50.02 105.968 50V41.87L106.052 41.792C106.52 41.78 106.974 41.77 107.414 41.762C107.858 41.754 108.29 41.75 108.71 41.75C109.266 41.75 109.752 41.844 110.168 42.032C110.584 42.22 110.906 42.5 111.134 42.872C111.366 43.24 111.482 43.698 111.482 44.246ZM119.022 42.518C118.994 42.734 118.91 42.94 118.77 43.136C118.63 43.332 118.486 43.48 118.338 43.58C118.054 43.368 117.728 43.196 117.36 43.064C116.992 42.932 116.622 42.866 116.25 42.866C115.826 42.866 115.448 42.968 115.116 43.172C114.784 43.376 114.522 43.706 114.33 44.162C114.142 44.618 114.048 45.222 114.048 45.974C114.048 47.006 114.238 47.766 114.618 48.254C115.002 48.742 115.572 48.986 116.328 48.986C116.74 48.986 117.12 48.942 117.468 48.854C117.82 48.766 118.094 48.686 118.29 48.614L119.034 49.658C118.798 49.746 118.52 49.828 118.2 49.904C117.88 49.98 117.538 50.042 117.174 50.09C116.81 50.138 116.444 50.162 116.076 50.162C115.436 50.162 114.892 50.054 114.444 49.838C114 49.622 113.638 49.322 113.358 48.938C113.082 48.554 112.88 48.108 112.752 47.6C112.624 47.088 112.56 46.54 112.56 45.956C112.56 45.204 112.662 44.556 112.866 44.012C113.07 43.468 113.346 43.022 113.694 42.674C114.042 42.322 114.432 42.062 114.864 41.894C115.3 41.726 115.748 41.642 116.208 41.642C116.716 41.642 117.218 41.722 117.714 41.882C118.214 42.042 118.65 42.254 119.022 42.518ZM117.666 47.606C117.666 47.326 117.674 47.058 117.69 46.802C117.706 46.542 117.742 46.308 117.798 46.1L119.034 46.52V49.658L117.666 49.676V47.606ZM118.032 45.596C118.408 45.596 118.668 45.68 118.812 45.848C118.96 46.012 119.034 46.236 119.034 46.52V46.826H116.778C116.646 46.826 116.526 46.81 116.418 46.778C116.31 46.746 116.224 46.686 116.16 46.598C116.1 46.51 116.07 46.38 116.07 46.208C116.07 46.112 116.08 46.008 116.1 45.896C116.12 45.784 116.146 45.684 116.178 45.596H118.032ZM122.652 41.804C122.764 41.784 122.9 41.77 123.06 41.762C123.224 41.754 123.368 41.75 123.492 41.75C123.604 41.75 123.74 41.756 123.9 41.768C124.064 41.776 124.2 41.79 124.308 41.81L126.972 49.91C126.868 49.97 126.738 50.014 126.582 50.042C126.43 50.074 126.282 50.09 126.138 50.09C125.906 50.09 125.726 50.038 125.598 49.934C125.474 49.83 125.366 49.624 125.274 49.316L124.074 45.44C123.966 45.096 123.854 44.72 123.738 44.312C123.622 43.904 123.52 43.53 123.432 43.19H123.366C123.326 43.382 123.276 43.594 123.216 43.826C123.156 44.054 123.094 44.278 123.03 44.498C122.97 44.718 122.916 44.908 122.868 45.068L121.326 50.012C121.234 50.032 121.134 50.046 121.026 50.054C120.922 50.062 120.814 50.066 120.702 50.066C120.582 50.066 120.458 50.056 120.33 50.036C120.206 50.02 120.098 49.998 120.006 49.97L119.958 49.898L122.652 41.804ZM122.568 48.092C122.528 48.092 122.456 48.092 122.352 48.092C122.248 48.088 122.142 48.086 122.034 48.086C121.93 48.082 121.858 48.08 121.818 48.08H121.116L121.56 46.922H122.178C122.222 46.922 122.29 46.922 122.382 46.922C122.474 46.918 122.566 46.916 122.658 46.916C122.754 46.912 122.822 46.91 122.862 46.91H123.978C124.018 46.91 124.086 46.912 124.182 46.916C124.278 46.916 124.374 46.918 124.47 46.922C124.566 46.922 124.636 46.922 124.68 46.922H125.316L125.694 48.08H124.992C124.948 48.08 124.872 48.082 124.764 48.086C124.66 48.086 124.556 48.088 124.452 48.092C124.348 48.092 124.276 48.092 124.236 48.092H122.568ZM128.21 41.822C128.326 41.798 128.472 41.78 128.648 41.768C128.828 41.756 128.968 41.75 129.068 41.75C129.176 41.75 129.308 41.754 129.464 41.762C129.624 41.77 129.778 41.784 129.926 41.804L129.548 43.472L129.446 43.496C129.466 43.792 129.484 44.122 129.5 44.486C129.516 44.85 129.53 45.218 129.542 45.59C129.554 45.958 129.56 46.296 129.56 46.604V50C129.44 50.02 129.322 50.034 129.206 50.042C129.094 50.05 128.99 50.054 128.894 50.054C128.806 50.054 128.698 50.05 128.57 50.042C128.446 50.034 128.326 50.02 128.21 50V41.822ZM130.226 45.158C130.086 44.858 129.954 44.566 129.83 44.282C129.706 43.998 129.592 43.732 129.488 43.484L128.81 42.68L129.926 41.804L132.284 46.64C132.436 46.964 132.578 47.278 132.71 47.582C132.846 47.886 132.966 48.158 133.07 48.398L133.79 49.16L132.614 50L130.226 45.158ZM134.336 41.816V49.982C134.22 50.006 134.076 50.024 133.904 50.036C133.732 50.048 133.586 50.054 133.466 50.054C133.346 50.054 133.21 50.05 133.058 50.042C132.906 50.034 132.758 50.02 132.614 50L133.004 48.41L133.112 48.386C133.092 48.054 133.072 47.696 133.052 47.312C133.036 46.928 133.024 46.554 133.016 46.19C133.008 45.826 133.004 45.506 133.004 45.23V42.638C133.004 42.318 133.062 42.09 133.178 41.954C133.298 41.814 133.502 41.744 133.79 41.744H134.264L134.336 41.816ZM136.461 41.804C136.573 41.784 136.695 41.77 136.827 41.762C136.963 41.754 137.081 41.75 137.181 41.75C137.293 41.75 137.413 41.754 137.541 41.762C137.673 41.77 137.797 41.784 137.913 41.804V50C137.797 50.02 137.673 50.034 137.541 50.042C137.413 50.05 137.293 50.054 137.181 50.054C137.081 50.054 136.963 50.05 136.827 50.042C136.695 50.034 136.573 50.02 136.461 50V41.804ZM144.438 44.75C144.442 44.438 144.396 44.134 144.3 43.838C144.208 43.538 144.046 43.292 143.814 43.1C143.586 42.904 143.266 42.806 142.854 42.806C142.254 42.806 141.806 43.072 141.51 43.604C141.214 44.136 141.066 44.916 141.066 45.944C141.066 46.9 141.232 47.632 141.564 48.14C141.9 48.648 142.366 48.902 142.962 48.902C143.346 48.902 143.712 48.822 144.06 48.662C144.412 48.498 144.752 48.28 145.08 48.008C145.232 48.108 145.376 48.248 145.512 48.428C145.652 48.604 145.742 48.776 145.782 48.944C145.558 49.164 145.286 49.368 144.966 49.556C144.65 49.74 144.3 49.888 143.916 50C143.532 50.108 143.132 50.162 142.716 50.162C142.128 50.162 141.63 50.044 141.222 49.808C140.818 49.568 140.492 49.246 140.244 48.842C140 48.438 139.822 47.986 139.71 47.486C139.602 46.982 139.548 46.466 139.548 45.938C139.548 44.942 139.7 44.128 140.004 43.496C140.312 42.86 140.718 42.392 141.222 42.092C141.73 41.788 142.286 41.636 142.89 41.636C143.494 41.636 144.016 41.748 144.456 41.972C144.896 42.192 145.234 42.484 145.47 42.848C145.71 43.208 145.83 43.598 145.83 44.018C145.83 44.278 145.764 44.48 145.632 44.624C145.5 44.764 145.294 44.834 145.014 44.834C144.902 44.834 144.802 44.826 144.714 44.81C144.63 44.794 144.538 44.774 144.438 44.75ZM149.211 49.268C149.231 49.06 149.299 48.854 149.415 48.65C149.531 48.446 149.661 48.284 149.805 48.164C150.153 48.388 150.539 48.578 150.963 48.734C151.387 48.89 151.807 48.968 152.223 48.968C152.671 48.968 153.013 48.87 153.249 48.674C153.489 48.474 153.609 48.226 153.609 47.93C153.609 47.686 153.527 47.464 153.363 47.264C153.203 47.06 152.949 46.884 152.601 46.736L151.155 46.13C150.655 45.918 150.251 45.644 149.943 45.308C149.639 44.972 149.487 44.54 149.487 44.012C149.487 43.56 149.605 43.156 149.841 42.8C150.081 42.44 150.409 42.158 150.825 41.954C151.241 41.746 151.719 41.642 152.259 41.642C152.771 41.642 153.255 41.71 153.711 41.846C154.171 41.978 154.557 42.122 154.869 42.278C154.857 42.486 154.805 42.69 154.713 42.89C154.625 43.09 154.505 43.256 154.353 43.388C154.045 43.236 153.699 43.104 153.315 42.992C152.935 42.88 152.587 42.824 152.271 42.824C151.855 42.824 151.533 42.926 151.305 43.13C151.077 43.33 150.963 43.566 150.963 43.838C150.963 44.074 151.045 44.27 151.209 44.426C151.373 44.578 151.599 44.716 151.887 44.84L153.333 45.434C153.685 45.582 153.995 45.766 154.263 45.986C154.535 46.206 154.747 46.46 154.899 46.748C155.055 47.036 155.133 47.358 155.133 47.714C155.133 48.178 155.021 48.596 154.797 48.968C154.577 49.336 154.245 49.628 153.801 49.844C153.361 50.056 152.805 50.162 152.133 50.162C151.637 50.162 151.129 50.084 150.609 49.928C150.089 49.768 149.623 49.548 149.211 49.268ZM155.442 43.016C155.422 42.912 155.408 42.808 155.4 42.704C155.392 42.596 155.388 42.5 155.388 42.416C155.388 42.324 155.392 42.226 155.4 42.122C155.408 42.018 155.422 41.912 155.442 41.804H161.07C161.094 41.884 161.112 41.976 161.124 42.08C161.14 42.18 161.148 42.276 161.148 42.368C161.148 42.604 161.084 42.772 160.956 42.872C160.828 42.968 160.63 43.016 160.362 43.016H159.684C159.604 43.016 159.486 43.014 159.33 43.01C159.178 43.006 159.06 43.004 158.976 43.004H157.53C157.446 43.004 157.328 43.006 157.176 43.01C157.024 43.014 156.906 43.016 156.822 43.016H155.442ZM157.53 43.892C157.53 43.728 157.53 43.582 157.53 43.454C157.534 43.322 157.536 43.172 157.536 43.004V42.41H158.97V43.004C158.97 43.172 158.97 43.322 158.97 43.454C158.974 43.582 158.976 43.728 158.976 43.892V50C158.86 50.02 158.736 50.034 158.604 50.042C158.476 50.05 158.36 50.054 158.256 50.054C158.148 50.054 158.028 50.05 157.896 50.042C157.768 50.034 157.646 50.02 157.53 50V43.892ZM162.974 45.896C162.974 46.248 162.998 46.608 163.046 46.976C163.094 47.34 163.184 47.678 163.316 47.99C163.452 48.298 163.644 48.548 163.892 48.74C164.144 48.928 164.47 49.022 164.87 49.022C165.27 49.022 165.594 48.928 165.842 48.74C166.09 48.548 166.28 48.298 166.412 47.99C166.548 47.678 166.64 47.34 166.688 46.976C166.736 46.608 166.76 46.248 166.76 45.896C166.76 45.544 166.736 45.186 166.688 44.822C166.64 44.458 166.548 44.122 166.412 43.814C166.28 43.506 166.09 43.258 165.842 43.07C165.594 42.878 165.27 42.782 164.87 42.782C164.47 42.782 164.144 42.878 163.892 43.07C163.644 43.258 163.452 43.506 163.316 43.814C163.184 44.122 163.094 44.458 163.046 44.822C162.998 45.186 162.974 45.544 162.974 45.896ZM161.462 45.896C161.462 45.076 161.584 44.346 161.828 43.706C162.076 43.066 162.452 42.562 162.956 42.194C163.46 41.826 164.098 41.642 164.87 41.642C165.454 41.642 165.96 41.748 166.388 41.96C166.816 42.172 167.17 42.47 167.45 42.854C167.73 43.238 167.938 43.688 168.074 44.204C168.214 44.72 168.284 45.284 168.284 45.896C168.284 46.72 168.16 47.454 167.912 48.098C167.664 48.738 167.288 49.242 166.784 49.61C166.28 49.978 165.642 50.162 164.87 50.162C164.286 50.162 163.78 50.056 163.352 49.844C162.924 49.632 162.57 49.334 162.29 48.95C162.01 48.562 161.802 48.11 161.666 47.594C161.53 47.074 161.462 46.508 161.462 45.896ZM175.384 44.246C175.384 44.618 175.314 44.952 175.174 45.248C175.038 45.544 174.854 45.794 174.622 45.998C174.394 46.198 174.144 46.344 173.872 46.436C174.076 46.508 174.25 46.64 174.394 46.832C174.538 47.02 174.654 47.234 174.742 47.474L175.228 48.782C175.308 49.006 175.39 49.186 175.474 49.322C175.562 49.454 175.664 49.564 175.78 49.652C175.684 49.784 175.544 49.89 175.36 49.97C175.176 50.05 174.992 50.09 174.808 50.09C174.54 50.09 174.344 50.018 174.22 49.874C174.096 49.726 173.982 49.508 173.878 49.22L173.326 47.696C173.23 47.436 173.102 47.218 172.942 47.042C172.782 46.866 172.522 46.778 172.162 46.778H170.716V45.668C170.888 45.66 171.088 45.652 171.316 45.644C171.548 45.636 171.772 45.63 171.988 45.626C172.208 45.622 172.386 45.62 172.522 45.62C172.89 45.62 173.174 45.552 173.374 45.416C173.574 45.28 173.712 45.108 173.788 44.9C173.864 44.688 173.902 44.47 173.902 44.246C173.902 44.014 173.864 43.794 173.788 43.586C173.712 43.374 173.574 43.202 173.374 43.07C173.174 42.938 172.89 42.872 172.522 42.872C172.414 42.872 172.29 42.872 172.15 42.872C172.014 42.872 171.872 42.872 171.724 42.872C171.576 42.868 171.438 42.864 171.31 42.86V50C171.194 50.02 171.072 50.034 170.944 50.042C170.816 50.05 170.696 50.054 170.584 50.054C170.484 50.054 170.368 50.05 170.236 50.042C170.104 50.034 169.982 50.02 169.87 50V41.87L169.954 41.792C170.422 41.78 170.876 41.77 171.316 41.762C171.76 41.754 172.192 41.75 172.612 41.75C173.168 41.75 173.654 41.844 174.07 42.032C174.486 42.22 174.808 42.5 175.036 42.872C175.268 43.24 175.384 43.698 175.384 44.246ZM177.118 41.882L177.196 41.804H178.534V42.992C178.534 43.16 178.536 43.3 178.54 43.412C178.544 43.524 178.546 43.662 178.546 43.826V48.146C178.546 48.266 178.544 48.378 178.54 48.482C178.536 48.582 178.534 48.694 178.534 48.818V50.018H177.952C177.696 50.018 177.492 49.942 177.34 49.79C177.192 49.634 177.118 49.418 177.118 49.142V41.882ZM181.45 45.272C181.478 45.364 181.498 45.468 181.51 45.584C181.522 45.696 181.528 45.79 181.528 45.866C181.528 45.946 181.522 46.042 181.51 46.154C181.498 46.262 181.478 46.366 181.45 46.466H179.308C179.216 46.466 179.094 46.464 178.942 46.46C178.79 46.456 178.632 46.454 178.468 46.454C178.308 46.45 178.166 46.448 178.042 46.448V45.29C178.166 45.286 178.308 45.284 178.468 45.284C178.632 45.28 178.79 45.278 178.942 45.278C179.094 45.274 179.216 45.272 179.308 45.272H181.45ZM182.116 41.804C182.14 41.912 182.154 42.014 182.158 42.11C182.162 42.206 182.164 42.294 182.164 42.374C182.164 42.458 182.154 42.56 182.134 42.68C182.118 42.8 182.09 42.914 182.05 43.022H179.308C179.216 43.022 179.094 43.022 178.942 43.022C178.79 43.018 178.632 43.016 178.468 43.016C178.308 43.012 178.166 43.008 178.042 43.004V41.804H182.116ZM182.368 48.8C182.368 49.224 182.302 49.534 182.17 49.73C182.038 49.922 181.786 50.018 181.414 50.018H178.042V48.854C178.254 48.842 178.46 48.83 178.66 48.818C178.86 48.806 179.09 48.8 179.35 48.8H182.368Z" fill="#86BC42"/>
<path opacity="0.2" d="M50.0054 59.0357C50.0054 58.5243 39.506 58.1031 26.5698 58.1031C13.6336 58.1031 3.13416 58.5243 3.13416 59.0357C3.13416 59.5472 13.6336 59.9684 26.5698 59.9684C39.5361 59.9684 50.0054 59.5472 50.0054 59.0357Z" fill="#5D5D5D"/>
<path d="M26.9007 11.8036C37.0993 11.8036 45.3724 20.0768 45.3724 30.2753V48.747H26.9007C16.7022 48.747 8.42899 40.4739 8.42899 30.2753V11.8036H26.9007Z" fill="#86BC42"/>
<path opacity="0.3" d="M42.725 20.7687C41.1907 22.5436 40.2581 24.8601 40.2581 27.3872C40.2581 31.1477 42.3038 34.4269 45.3424 36.2019V30.2753C45.3424 26.8156 44.4097 23.5665 42.725 20.7687Z" fill="#86BC42"/>
<path d="M35.4747 13.9395C32.5866 15.5941 30.6612 18.6928 30.6612 22.2728C30.6612 27.5677 34.9633 31.8697 40.2581 31.8697C42.1233 31.8697 43.8682 31.3282 45.3423 30.3956V30.2752C45.3423 23.1754 41.3411 17.0081 35.4747 13.9395Z" fill="#86BC42"/>
<path opacity="0.5" d="M20.9741 15.3835C16.2208 15.3835 11.8586 17.0381 8.42899 19.836V30.3053C8.42899 40.5038 16.7022 48.777 26.9007 48.777H35.7455C38.9645 45.2271 40.92 40.5339 40.92 35.3594C40.92 24.3185 31.9849 15.3835 20.9741 15.3835Z" fill="#FFD96A"/>
<path d="M45.3423 48.7169L26.9007 48.747C16.7022 48.747 8.42899 40.4738 8.42899 30.2752V11.8336L45.3423 48.7169Z" fill="#86BC42"/>
<path opacity="0.3" d="M11.287 18.422C11.287 32.4413 22.6588 43.783 36.648 43.783C37.8514 43.783 39.0247 43.6928 40.1679 43.5423L11.5277 14.9322C11.3772 16.0754 11.287 17.2487 11.287 18.422Z" fill="#86BC42"/>
<path opacity="0.3" d="M45.3423 48.747L8.57941 11.984C12.9115 18.4521 17.9055 25.0105 22.9898 30.4257C26.9609 34.6375 38.423 44.0538 45.3423 48.747Z" fill="#86BC42"/>
<path opacity="0.3" d="M20.4928 23.8673L8.42899 11.8336V30.3053C8.42899 38.4581 13.7238 45.3775 21.0343 47.8143C17.9055 44.6555 15.9801 40.3234 15.9801 35.5701C15.9801 31.0574 17.6949 26.966 20.4928 23.8673Z" fill="#86BC42"/>
<path opacity="0.3" d="M36.9188 40.3234C33.79 44.1441 29.0367 46.611 23.7118 46.611C20.1618 46.611 16.8526 45.528 14.1149 43.6628C17.4242 46.8216 21.9067 48.7771 26.8706 48.7771H45.3423V48.747L36.9188 40.3234Z" fill="#86BC42"/>
<path opacity="0.3" d="M9.51202 22.8745C9.51202 19.8962 10.0235 17.0081 10.9861 14.3607L8.42899 11.8336V30.3053C8.42899 40.5039 16.7022 48.7771 26.9007 48.7771H45.3724V48.747L43.5373 46.9118C40.8598 47.8745 38.0018 48.386 34.9934 48.386C20.9139 48.3559 9.51202 36.9539 9.51202 22.8745Z" fill="#FFD96A"/>
<path d="M45.0415 52.327C46.3351 51.966 47.6889 52.7482 48.0198 54.0418C48.3808 55.3354 47.5986 56.6892 46.2749 57.0202C44.9813 57.3812 43.6275 56.599 43.2966 55.3054C42.9657 54.0117 43.7479 52.688 45.0415 52.327ZM44.5601 50.4919C42.2436 51.1236 40.8598 53.4702 41.4915 55.7867C42.0932 58.1032 44.4699 59.4871 46.7864 58.8553C49.1028 58.2235 50.4867 55.8469 49.855 53.5605C49.2533 51.244 46.8766 49.8902 44.5601 50.4919Z" fill="#41544A"/>
<path opacity="0.5" d="M47.6287 56.1476C47.2978 56.5688 46.8465 56.8998 46.305 57.0502C45.0114 57.4112 43.6576 56.629 43.3267 55.3354C43.086 54.3727 43.4169 53.41 44.139 52.8384C43.778 52.3269 43.4771 51.7553 43.1763 51.1837C41.7322 52.2066 41.0102 54.0418 41.4916 55.8468C42.0932 58.1633 44.4699 59.5472 46.7864 58.9154C47.8694 58.6146 48.7419 57.9527 49.3135 57.0803C48.7419 56.7794 48.1703 56.4786 47.6287 56.1476Z" fill="#41544A"/>
<path d="M9.30142 52.327C10.595 51.9961 11.9488 52.7783 12.2798 54.0719C12.6107 55.3655 11.8285 56.7193 10.5349 57.0502C9.24125 57.3811 7.88746 56.599 7.55654 55.3053C7.22561 54.0117 8.0078 52.6579 9.30142 52.327ZM8.82007 50.4919C6.50359 51.0935 5.11971 53.4702 5.7214 55.7867C6.32308 58.1032 8.69974 59.487 11.0162 58.8854C13.3327 58.2837 14.7166 55.907 14.145 53.5905C13.5132 51.2741 11.1366 49.8902 8.82007 50.4919Z" fill="#41544A"/>
<path opacity="0.5" d="M11.8586 56.1778C11.5276 56.599 11.0764 56.9299 10.5349 57.0502C9.24125 57.3812 7.88746 56.599 7.55653 55.3054C7.31585 54.3427 7.67687 53.38 8.3688 52.8084C8.00779 52.2969 7.70695 51.7253 7.43619 51.1537C5.99215 52.1465 5.24004 53.9816 5.72139 55.7867C6.32308 58.1032 8.69973 59.4871 11.0162 58.8854C12.0992 58.6146 13.0018 57.9227 13.5433 57.0502C12.9416 56.8096 12.4001 56.5087 11.8586 56.1778Z" fill="#41544A"/>
<path d="M9.60226 10.54C9.03066 10.54 8.54931 10.0586 8.54931 9.48705C8.54931 7.02014 7.85738 5.15492 6.53367 3.92146C4.39769 1.90582 1.17868 2.11641 1.14859 2.11641C0.576992 2.17658 0.0655599 1.72531 0.0053914 1.15371C-0.0547771 0.582111 0.396486 0.0706792 0.968087 0.0105107C1.14859 0.0105107 5.11971 -0.290332 7.94763 2.327C9.75268 3.98163 10.6552 6.38837 10.6552 9.45696C10.6552 10.0586 10.2039 10.54 9.60226 10.54Z" fill="#41544A"/>
</svg>
